<?xml version="1.0" encoding="UTF-8"?>
<!-- Generator: Adobe Illustrator 16.0.0, SVG Export Plug-In . SVG Version: 6.00 Build 0)  -->
<!DOCTYPE svg PUBLIC "-//W3C//DTD SVG 1.1//EN" "http://www.w3.org/Graphics/SVG/1.1/DTD/svg11.dtd">
<svg version="1.1" id="Layer_1" xmlns="http://www.w3.org/2000/svg" xmlns:xlink="http://www.w3.org/1999/xlink" x="0px" y="0px" width="640px" height="203.137px" viewBox="0 0 640 203.137" enable-background="new 0 0 640 203.137" xml:space="preserve">
<style type="text/css">
	.st0{fill:transparent;}
</style>
<g>
	<polygon fill="#FFFFFF" class="st0" points="0,0 0,203.137 640,203.137 640,0 0,0  "/>
	<path fill="#666D78" d="M57.49,141.939h3.25c8.938,0,11.986,6.906,11.986,16.251c0,9.039-2.235,15.642-9.345,15.642H57.49V141.939   L57.49,141.939z M61.35,110.453c6.398,0,8.329,4.977,8.329,14.117c0,8.735-0.407,14.525-8.938,14.525h-3.25v-28.642H61.35   L61.35,110.453z M68.663,176.675c15.236,0,23.36-7.415,23.36-18.282c0-7.617-6.5-17.267-24.071-17.774v-0.203   c13.711-1.219,21.024-8.126,21.024-15.946c0-9.852-8.126-16.86-23.36-16.86H32.098v2.539l5.078,0.711   c1.422,0.102,2.032,1.015,2.032,2.539v57.589c0,1.523-0.609,2.336-2.032,2.54l-5.078,0.609v2.539H68.663L68.663,176.675z    M99.133,161.441c0,11.172,6.906,16.25,14.524,16.25c7.414,0,13.915-3.352,17.773-13.915h0.204v9.852   c0,3.656,3.047,4.062,5.484,4.062c4.063,0,10.665-0.507,16.86-1.016v-2.539l-4.063-0.508c-1.421-0.204-2.031-1.016-2.031-2.54   v-36.361c0-3.758,0.203-7.11,0.609-9.142l-0.609-0.711l-24.377,3.352v2.54h6.095c1.422,0,2.031,0.508,2.031,2.031v22.345   c0,6.805-3.758,12.696-9.853,12.696c-4.367,0-6.398-2.844-6.398-6.806v-26.306c0-3.758,0.203-7.11,0.61-9.142l-0.61-0.711   l-22.345,3.352v2.54h4.062c1.422,0,2.032,0.508,2.032,2.031V161.441L99.133,161.441z M174.395,177.691   c11.68,0,19.704-6.603,19.704-16.25c0-9.142-4.57-13.103-17.165-18.791c-3.657-1.625-7.82-3.25-7.82-8.531   c0-3.453,2.336-6.398,6.805-6.398c6.601,0,8.937,5.585,12.696,13.406h2.539l-0.508-14.22c-7.922-1.523-11.172-2.031-15.743-2.031   c-13.204,0-19.298,7.109-19.298,15.236c0,8.125,3.961,12.391,13.61,16.758c8.227,3.758,10.461,6.805,10.461,10.97   c0,4.367-2.742,7.008-7.008,7.008c-7.008,0-10.259-5.382-14.321-13.406h-2.54l1.321,14.219   C164.745,177.184,169.519,177.691,174.395,177.691L174.395,177.691z M199.685,111.672c0,5.079,4.062,8.125,9.141,8.125   s9.141-3.046,9.141-8.125c0-5.078-4.062-8.126-9.141-8.126S199.685,106.594,199.685,111.672L199.685,111.672z M216.952,134.728   c0-3.758,0.203-7.11,0.609-9.142l-0.609-0.711l-22.345,3.352v2.54h4.062c1.422,0,2.031,0.508,2.031,2.031v38.19   c0,1.523-0.608,2.234-2.031,2.54l-4.062,0.609v2.539h28.439v-2.539l-4.062-0.609c-1.422-0.305-2.031-1.016-2.031-2.54V134.728   L216.952,134.728z M248.438,124.875l-22.346,3.352v2.54h4.063c1.422,0,2.031,0.508,2.031,2.031v38.19   c0,1.523-0.609,2.234-2.031,2.54l-4.063,0.609v2.539h28.439v-2.539l-4.062-0.609c-1.422-0.305-2.031-1.016-2.031-2.54v-23.564   c0-6.805,3.757-12.696,9.75-12.696c4.469,0,6.5,2.945,6.5,6.805v29.455c0,1.523-0.102,2.133-1.523,2.54l-2.539,0.609v2.539h26.407   v-2.539l-4.063-0.609c-1.422-0.305-2.031-1.016-2.031-2.54v-29.861c0-11.173-7.008-16.251-14.625-16.251   c-7.415,0-13.813,3.454-17.673,14.017h-0.203v-4.164c0-3.758,0.203-7.11,0.609-9.142L248.438,124.875L248.438,124.875z    M312.323,127.72c5.992,0,8.531,6.195,6.704,17.977h-16.759C302.775,135.946,305.721,127.72,312.323,127.72L312.323,127.72z    M333.246,148.338c3.048-18.587-9.648-23.462-20.822-23.462c-12.696,0-27.423,8.633-27.423,26.916   c0,17.267,12.188,25.9,26.408,25.9c10.36,0,17.978-5.993,21.33-11.376l-1.321-1.523c-3.757,3.25-8.024,5.079-13,5.079   c-11.274,0-16.556-9.446-16.149-21.533H333.246L333.246,148.338z M356.199,177.691c11.68,0,19.704-6.603,19.704-16.25   c0-9.142-4.571-13.103-17.165-18.791c-3.656-1.625-7.821-3.25-7.821-8.531c0-3.453,2.336-6.398,6.806-6.398   c6.6,0,8.936,5.585,12.696,13.406h2.538l-0.507-14.22c-7.922-1.523-11.173-2.031-15.743-2.031   c-13.205,0-19.299,7.109-19.299,15.236c0,8.125,3.961,12.391,13.611,16.758c8.226,3.758,10.461,6.805,10.461,10.97   c0,4.367-2.742,7.008-7.008,7.008c-7.008,0-10.259-5.382-14.322-13.406h-2.539l1.32,14.219   C346.55,177.184,351.324,177.691,356.199,177.691L356.199,177.691z M396.827,177.691c11.681,0,19.704-6.603,19.704-16.25   c0-9.142-4.57-13.103-17.165-18.791c-3.656-1.625-7.821-3.25-7.821-8.531c0-3.453,2.336-6.398,6.805-6.398   c6.603,0,8.939,5.585,12.696,13.406h2.539l-0.507-14.22c-7.921-1.523-11.173-2.031-15.744-2.031   c-13.204,0-19.298,7.109-19.298,15.236c0,8.125,3.961,12.391,13.61,16.758c8.229,3.758,10.462,6.805,10.462,10.97   c0,4.367-2.743,7.008-7.008,7.008c-7.008,0-10.259-5.382-14.321-13.406h-2.54l1.32,14.219   C387.179,177.184,391.951,177.691,396.827,177.691L396.827,177.691z M452.18,110.453h5.079c8.126,0,10.158,6.805,10.158,16.758   c0,9.954-2.032,17.064-10.158,17.064h-5.079V110.453L452.18,110.453z M462.338,147.119c16.25,0,24.376-9.142,24.376-19.908   c0-10.766-8.126-19.602-24.376-19.602h-35.55v2.539l5.079,0.711c1.422,0.102,2.032,1.015,2.032,2.539v57.589   c0,1.523-0.609,2.336-2.032,2.54l-5.079,0.609v2.539h34.534v-2.539l-7.11-0.609c-1.422-0.204-2.032-1.016-2.032-2.54v-23.869   H462.338L462.338,147.119z M512.106,127.72c6.805,0,9.141,9.242,9.141,23.563c0,14.322-2.235,23.564-9.141,23.564   c-6.907,0-9.141-9.242-9.141-23.564C502.965,136.962,505.199,127.72,512.106,127.72L512.106,127.72z M512.106,177.691   c14.93,0,26.408-10.462,26.408-26.408s-11.478-26.408-26.408-26.408c-15.032,0-26.408,10.461-26.408,26.408   S497.074,177.691,512.106,177.691L512.106,177.691z M560.959,177.691c11.68,0,19.704-6.603,19.704-16.25   c0-9.142-4.569-13.103-17.165-18.791c-3.656-1.625-7.821-3.25-7.821-8.531c0-3.453,2.336-6.398,6.805-6.398   c6.602,0,8.939,5.585,12.696,13.406h2.539l-0.507-14.22c-7.923-1.523-11.173-2.031-15.744-2.031   c-13.203,0-19.297,7.109-19.297,15.236c0,8.125,3.961,12.391,13.609,16.758c8.229,3.758,10.462,6.805,10.462,10.97   c0,4.367-2.742,7.008-7.008,7.008c-7.009,0-10.259-5.382-14.322-13.406h-2.539l1.32,14.219   C551.31,177.184,556.084,177.691,560.959,177.691L560.959,177.691z M583.203,126.704v2.133h6.094v37.682   c0,8.633,4.569,11.172,12.696,11.172c5.891,0,11.68-1.523,15.743-3.555l-0.407-2.641c-2.03,0.812-3.757,1.32-5.688,1.32   c-3.25,0-6.093-1.015-6.093-7.821v-36.158h11.171v-2.946h-11.171v-12.188h-2.539l-8.634,9.446   c-1.728,1.828-3.352,2.844-5.688,3.047L583.203,126.704L583.203,126.704z"/>
	<path fill="#666D78" d="M40.021,27.06v60.535c0,1.523-0.609,2.336-2.031,2.539l-5.079,0.609v2.54h32.502v-2.54l-5.078-0.609   c-1.422-0.203-2.031-1.016-2.031-2.539V27.06h6.602c1.524,0,2.336,0.304,3.047,1.523l8.125,13.915h2.54V24.216h-58.91v18.283h2.539   l8.024-13.915c0.711-1.321,1.523-1.523,3.047-1.523H40.021L40.021,27.06z"/>
	<path fill="#666D78" d="M102.484,21.169l-22.346,3.352v2.539h4.063c1.422,0,2.031,0.508,2.031,2.031v58.503   c0,1.523-0.609,2.234-2.031,2.539l-4.063,0.609v2.54h28.439v-2.54l-4.062-0.609c-1.422-0.305-2.031-1.016-2.031-2.539V64.031   c0-6.805,3.758-12.696,9.75-12.696c4.469,0,6.5,2.945,6.5,6.805v29.455c0,1.523-0.102,2.133-1.524,2.539l-2.539,0.609v2.54h26.408   v-2.54l-4.063-0.609c-1.421-0.305-2.031-1.016-2.031-2.539V57.733c0-11.172-7.008-16.251-14.625-16.251   c-7.415,0-13.814,3.454-17.674,14.017h-0.203V31.021c0-3.758,0.203-7.11,0.609-9.141L102.484,21.169L102.484,21.169z"/>
	<path fill="#666D78" d="M168.401,44.326c5.993,0,8.531,6.196,6.703,17.978h-16.758C158.854,52.554,161.799,44.326,168.401,44.326   L168.401,44.326z M189.324,64.945c3.047-18.587-9.649-23.462-20.821-23.462c-12.696,0-27.424,8.634-27.424,26.916   c0,17.266,12.188,25.899,26.408,25.899c10.359,0,17.977-5.993,21.329-11.375l-1.321-1.524c-3.758,3.25-8.024,5.079-13.001,5.079   c-11.274,0-16.555-9.446-16.148-21.533H189.324L189.324,64.945z"/>
</g>
</svg>