<svg xmlns="http://www.w3.org/2000/svg" viewBox="0 0 196.9 196.9"><defs><style>.cls-1,.cls-2,.cls-3,.cls-4,.cls-5{fill:none;}.cls-1,.cls-2,.cls-3{stroke:#0fccd8;}.cls-1,.cls-2,.cls-4,.cls-5{stroke-linecap:round;}.cls-1,.cls-3{stroke-linejoin:round;}.cls-4,.cls-5{stroke:#d67d12;}.cls-4{stroke-width:4px;}.cls-5{stroke-width:20px;opacity:0.1;}</style></defs><title>Asset 26</title><g id="Layer_2" data-name="Layer 2"><g id="Buyers"><path class="cls-1" d="M57 87.92l-.1-1.36A7.47 7.47 0 0 1 61.63 79a14.65 14.65 0 0 0 6.76-5s11 .94 12 14v7.25a11.71 11.71 0 0 1-23.41 0v-7.33"/><path class="cls-2" d="M68.67 95.19v-3.68M68.67 95.19h1.52M56.87 95.18a3.34 3.34 0 1 1 0-6.68M80.37 88.51a3.34 3.34 0 1 1 0 6.68"/><path class="cls-1" d="M63.67 105.48v4.37M73.67 105.48v4.37M70.67 130.21H49c-.7-7.6 1.13-11 3.07-12.62 1.47-1.25 3.14-1.62 6.85-4.17a47.8 47.8 0 0 0 4.58-3.57"/><path class="cls-1" d="M66.67 130.21H88.3c.7-7.6-1.13-11-3.07-12.62-1.47-1.25-3.14-1.62-6.85-4.17a47.8 47.8 0 0 1-4.58-3.57"/><path class="cls-2" d="M63.2 107.33a36.21 36.21 0 0 0-8 1.82 32.48 32.48 0 0 1-5.78-19c.09-3.41.45-16.28 10.41-21.41a19.65 19.65 0 0 1 11.09-1.93"/><path class="cls-3" d="M73.39 105.95c3-2 13.25-6.88 13-16-.09-3.41 1.06-16.08-8.89-21.21a19.65 19.65 0 0 0-11.09-1.93"/><path class="cls-1" d="M58 114.64a37.51 37.51 0 0 0 21.41 0l-10.82 10.79z"/><path class="cls-2" d="M142.1 89.38v-8.25c0-7.06-6.21-12.78-13.87-12.78s-13.87 5.72-13.87 12.78v8.25"/><path class="cls-1" d="M116.52 87.92v7.25a11.71 11.71 0 0 0 23.41 0v-7.25a10.18 10.18 0 0 0-5.43-10 8.94 8.94 0 0 0-8 0c-2.21 1.27-2.23 3-5 6a21.71 21.71 0 0 1-4.98 4z"/><path class="cls-2" d="M128.23 95.19v-3.68M128.23 95.19h1.52M116.43 95.18a3.34 3.34 0 1 1 0-6.68M139.93 88.51a3.34 3.34 0 1 1 0 6.68"/><path class="cls-1" d="M123.23 105.48v4.37M133.23 105.48v4.37M130.23 130.21H108.6c-.7-7.6 1.13-11 3.07-12.62 1.47-1.25 3.14-1.62 6.85-4.17a47.8 47.8 0 0 0 4.58-3.57"/><path class="cls-1" d="M126.23 130.21h21.63c.7-7.6-1.13-11-3.07-12.62-1.47-1.25-3.14-1.62-6.85-4.17a47.8 47.8 0 0 1-4.58-3.57"/><path class="cls-1" d="M117.52 114.64a37.51 37.51 0 0 0 21.41 0l-10.79 10.79z"/><circle class="cls-4" cx="98.45" cy="98.45" r="77"/><circle class="cls-5" cx="98.45" cy="98.45" r="88.45"/></g></g></svg>