<svg height="24" viewBox="0 0 87 24" width="87" xmlns="http://www.w3.org/2000/svg" xmlns:xlink="http://www.w3.org/1999/xlink"><mask id="a" fill="#fff"><path d="m0 24.6271491h86.5092682v-24.18859647h-86.5092682z" fill="#fff" fill-rule="evenodd"/></mask><g fill="none" fill-rule="evenodd" transform="translate(0 -1)"><path d="m20.4969871 19.2595175c-1.9114435 3.2131579-5.4485032 5.3675439-9.4958738 5.3675439-6.07661237 0-11.0010244-4.8578947-11.0010244-10.854386 0-5.9947368 4.92441203-10.85526312 11.0010244-10.85526312h.0631221l-10.14398646 10.16710522h5.77211501v6.175z" fill="#4170c4"/><path d="m24.5041729 11.4210965-9.6327864-9.94736843-9.92528182 9.94736843h3.43215249v6.1767544h12.69242973v-6.1767544z" fill="#f5811b"/><g fill="#4170c4"><path d="m35.6182837 22.1178947.1418025-.216228v1.35h1.5696063 1.5709399v-20.67017547h-1.6865156-1.6740689v9.07587717c-.8845983-.7969298-1.7932008-1.1929824-2.7298081-1.1859649-1.0730755 0-1.8781044.3513158-2.4141977 1.0469298-.5378713.6973685-.8059179 1.7442983-.8059179 3.1355263v4.4403509c0 1.5644737.2502657 2.6956141.7561315 3.3934211.500976.6973684 1.3211186 1.0464912 2.4639841 1.0464912 1.2459945 0 2.1808237-.472807 2.8080439-1.4162281m-.3276125-8.7298245c.1666956.447807.2493767 1.366228.2493767 2.7600877v1.7078947c0 1.3942983-.0862372 2.3140351-.2573781 2.7605263-.1684738.4460527-.520535.6701755-1.0508494.6701755-.4609691 0-.7899152-.1872807-.9859493-.5609649-.1973677-.375-.2960515-1.0026316-.2960515-1.8864035v-3.6596492c0-.9526315.0889044-1.5991228.2698247-1.9438596.1786978-.3429825.520535-.5149123 1.0250672-.5149123.5294254 0 .879264.2214912 1.0459597.6671053"/><path d="m46.614774 22.3984211.141358-.1653509v1.0188596h3.2538992v-8.9438596c0-1.3074562-.368064-2.2741228-1.1024139-2.8986842-.735239-.6232456-1.8647688-.9381579-3.3868113-.9381579-1.5793858 0-2.7284745.2828947-3.4494888.8429824-.7201253.5596491-1.0744091 1.4491228-1.0566283 2.6644737v.3701754h3.3614736v-.3714912c-.0275604-.5127193.0631221-.897807.2689356-1.1543859.20448-.2548246.5285364-.383772.9663903-.383772.3453934 0 .6063277.1184211.7810248.3578948.1720299.2364035.2604897.591228.2604897 1.0578947v1.5324561h-1.0175103c-1.8114261 0-3.0863145.3061404-3.8246652.9122807-.7396842.6092106-1.1077482 1.6574562-1.1077482 3.1478071v.7657894c0 1.0385965.2711583 1.8530702.8156974 2.4399123.5480953.5855263 1.3006707.8811404 2.2626158.8811404 1.2602191 0 2.2070505-.3780702 2.8333816-1.1359649zm.0382289-3.3368422c0 .8407895-.1213544 1.4732457-.3600626 1.8960527-.2395972.4258772-.5974373.6368421-1.0779653.6368421-.3582845 0-.6405558-.1105263-.8463694-.3346491-.2049245-.2228071-.3071645-.5311404-.3071645-.9254386v-.7714913c0-.8232456.1640285-1.4004386.4880849-1.7346491.3245008-.3355263.8810421-.5030702 1.6682901-.5030702h.4351868z"/><path d="m56.8253499 12.9722368v10.279386h-1.6745135-1.6847374v-10.279386h-1.7656404v-2.218421h1.7656404v-2.03070176c0-1.22675439.2853829-2.13728071.8525927-2.72763158.5712105-.59298246 1.4491409-.8885965 2.635125-.8885965.6321099 0 1.2233239.03552632 1.778087.10131579v2.15964913l-.4880849-.0122807c-.5156452 0-.8823757.10219298-1.0966352.30614035-.2151485.20438596-.3218337.55921052-.3218337 1.06140351v2.03070176h1.9065538v2.218421z"/><path d="m67.137899 23.379693c-.6561141.0921052-1.4029106.1407895-2.2395006.1407895-1.062407 0-1.8585454-.3096492-2.3946387-.9320176-.5334261-.6157895-.8023618-1.5451754-.8023618-2.7741228v-6.8526316h-1.7932007v-2.220614h1.7932007v-7.05833334l3.36014-2.58991228v9.64824562h2.0763611v2.220614h-2.0763611v6.8697369c0 .6057017.0644557 1.0017544.194256 1.1894737.1284668.1872807.4062929.2828947.837479.2828947.3769545-.0140351.7263486-.052193 1.0446261-.1149123z"/><path d="m69.0311172 23.2517105h2.7907076v-2.7517544h-2.7907076z" mask="url(#a)"/><path d="m73.6185817 7.8429386h2.2683946v-2.14078948h-2.2683946zm.1253552 15.4171053h2.0194623v-12.279386h-2.0194623z" mask="url(#a)"/><path d="m86.5093126 17.764693v-1.0456141c0-4.0600877-.8854873-5.9811403-4.4358826-5.9811403-4.3123056 0-4.7328231 2.9653509-4.7328231 6.5657895 0 5.4236842 2.0981426 6.1995614 4.7328231 6.1995614 2.6120098 0 4.3140836-1.2394737 4.3398659-3.9631579h-2.2208307c-.0729016 1.2403509-.7876925 2.3346491-2.1679326 2.3346491-1.5771632 0-2.5137705-.6811403-2.5137705-4.1100877zm-6.9985505-1.5074562c.0248932-3.4043859 1.0846331-4.0131579 2.3657448-4.0131579 1.4802574 0 2.4893218.4381579 2.4893218 4.0131579z" mask="url(#a)"/></g></g></svg>