<svg xmlns="http://www.w3.org/2000/svg" viewBox="0 0 66.51 59.64"><defs><style>.cls-1,.cls-2{fill:none;stroke:#0fccd8;stroke-linecap:round;}.cls-2{stroke-miterlimit:10;}</style></defs><title>fees</title><g id="Layer_2" data-name="Layer 2"><g id="Fees"><path class="cls-1" d="M17.86 44v13a2.15 2.15 0 0 1-2.15 2.15h-5a2.17 2.17 0 0 1-1.84-1C-2.68 39.26-.46 26.71 4.71 18.86A25.23 25.23 0 0 1 25.86 7.78h13.91M34.97 53.58H17.86M34.9 50.34V57a2.15 2.15 0 0 0 2.1 2.14h6.28a2.15 2.15 0 0 0 2.09-1.66l3.35-14.23M39.6 7.78a23.45 23.45 0 0 1 6.69 46"/><path class="cls-1" d="M62.6 24.34h2.16A1.26 1.26 0 0 1 66 25.59v11.52a1.26 1.26 0 0 1-1.25 1.25H62.6M40.88 12.54V1.7s8.53-1.38 8.53 10.84M34.97 47.82v-4.58M48.77 27l1.46-1.07a4.34 4.34 0 0 1 5.34.16l1.11.92M21.42 7.83a7.33 7.33 0 1 1 14.66 0"/><path class="cls-2" d="M26 29.82c0-3.35 2.24-6.06 5-6.06a4.26 4.26 0 0 1 1.95.48M26 29.82c0 3.35 2.24 6.06 5 6.06a4.26 4.26 0 0 0 2-.48M24.52 29.1h4.98M24.52 30.54h4.98"/></g></g></svg>