<svg version="1.1" id="independent_logo" xmlns="http://www.w3.org/2000/svg" xmlns:xlink="http://www.w3.org/1999/xlink" x="0px" y="0px" style="enable-background:new 0 0 652 110.6;" xml:space="preserve" viewBox="22.28 14.57 546.05 82.43">
<style type="text/css">
	.st0{fill:#666D78;}
</style>
<g id="XMLID_34_">
	<path id="XMLID_27_" class="st0" d="M40.7,23c-1.4,1.6-1.6,3.5-1.6,11.7v29.8c0,4-0.1,6.9,1.1,8.3c0.7,1.1,1.5,2,4.3,2.5v1.8   c-3-0.2-8.4-0.2-11.1-0.2c-2.7,0-8,0.1-11.1,0.2v-1.8c1-0.2,2.9-0.9,4-2.1c1.3-1.6,1.5-3.5,1.5-11.8V31.8c0-4.2,0-6.9-1-8.4   c-0.7-1.2-1.6-1.9-4.3-2.5v-1.7c3,0.2,8.5,0.2,11.2,0.2c2.7,0,8-0.1,11-0.2v1.7C43.7,21.1,41.7,21.9,40.7,23"/>
	<path id="XMLID_26_" class="st0" d="M81.2,76.9c-1.7,0-7.7,0.1-10.4,0.2v-1.7c1.6-0.3,1.9-0.9,2.5-1.6c1.6-1.8,1.6-6.2,1.6-9.2   c0-2.2,0.1-4.5,0.1-8.1c0-2.3-0.2-6.1-0.3-7.5c-0.2-3-0.7-7.7-6.8-7.7c-1.8,0-4,0.4-5.3,1.3v20.9c0,7.7,0.4,8.2,0.9,9.2   c0.7,1.6,1.8,2.4,3.4,2.6v1.7c-3-0.2-6.9-0.2-10.1-0.2c-1.6,0-7.4,0.1-10.7,0.2v-1.7c2.5-0.4,3.5-1.2,4.4-2.4c1.5-2,1.4-7.1,1.4-15   v-7c0-8.5,0.2-10.7-5.6-11.7v-1.9c1.9-0.1,6.6-0.3,10.5-1c1.2-0.2,4.1-0.7,5.1-1.3l0.8,0.7l-0.3,5.1c3.4-3.7,7.3-5.4,11.5-5.4   c6.4,0,9.3,3.1,10.7,6.9c1.2,3.2,1.2,7.1,1.2,9.8v11.9c0,5.8,0.3,7,1,8.3c1.1,1.9,3.5,2.5,5.1,2.9v1.7C89.6,77,84.4,76.9,81.2,76.9   "/>
	<path class="st0" d="M123.4,77.8c-2.3,0-5.7-0.5-6.6-5.3c-2.9,3.8-6.7,5.5-11.2,5.5c-10,0-15.8-7.9-15.8-20.2   c0-13.1,6.1-22.1,17.4-22.1c4,0,7.3,1.4,9.3,3.8v-5c0-6,0.2-11.5-1.1-13.2c-1.4-1.7-2.9-2.3-4.7-2.7v-2c2.6-0.1,8.2-0.4,11-0.7   c2.1-0.3,3.9-0.5,5.4-1.3l0.8,0.6c-0.6,5-0.7,17.3-0.7,28.8v20.7c0,3.4,0.1,4.7,1.2,5.8c0.7,0.7,2.1,1,4.4,0.9l0.3,1.4   C131.7,74.4,128.7,77.8,123.4,77.8 M116.5,41.4c-1.9-0.9-3.4-0.9-4.9-0.9c-10.7,0-10.2,14.5-10.2,16.9c0,9.9,3.4,15,9.8,15   c1,0,3.4-0.1,5.3-1.4V41.4z"/>
	<path class="st0" d="M143.2,54v0.3c0,7.2,1.1,17.4,13,17.4c4.2,0,7.1-1.2,7.6-1.6l0.8,1.5c-1.5,1.7-5.5,6-14.2,6   c-6,0-18.3-2.1-18.3-20.3c0-9.4,4.5-21.6,18.7-21.6c7.9,0,11.2,4.6,12.2,6.2c2.2,3.6,2.6,8.1,2.6,11.4V54H143.2z M154.8,49.1   c0-5.7-0.7-10.1-5.2-10.1c-5.9,0-6.4,7.4-6.4,12.6l11.6-1.8V49.1z"/>
	<path class="st0" d="M188.8,78.1c-3.8,0-6.8-0.9-9.3-3.9V84c0,5.8,0.5,7.2,1.2,8.4c1,1.9,4.1,2.5,5.7,2.9v1.7   c-2.3-0.2-8.6-0.2-11.8-0.2c-1.7,0-8.3,0.1-11.6,0.2v-1.7c2.5-0.5,3.5-1.2,4.4-2.5c1.5-1.9,1.4-7,1.4-14.9V51.1   c0-8.5,0.2-10.7-5.7-11.6v-1.9c1.9-0.1,6.4-0.3,10.3-1c1.2-0.2,4.3-0.7,5.3-1.3l0.8,0.7l-0.2,5.1c3.4-3.8,7.1-5.4,11.1-5.4   c11.6,0,15.7,10.3,15.7,20.3C206.2,68.8,200.2,78.1,188.8,78.1 M184.8,41.3c-1,0-3.4,0.1-5.3,1.4v29.7c1.9,0.9,3.4,0.9,4.9,0.9   c10.7,0,10.2-14.5,10.2-16.9C194.6,46.4,191.2,41.3,184.8,41.3"/>
	<path class="st0" d="M219.3,54v0.3c0,7.2,1.1,17.4,13,17.4c4.2,0,7.1-1.2,7.6-1.6l0.8,1.5c-1.5,1.7-5.5,6-14.2,6   c-6,0-18.2-2.1-18.2-20.3c0-9.4,4.5-21.6,18.7-21.6c7.9,0,11.2,4.6,12.2,6.2c2.2,3.6,2.6,8.1,2.6,11.4V54H219.3z M230.9,49.1   c0-5.7-0.7-10.1-5.2-10.1c-5.9,0-6.4,7.4-6.4,12.6l11.6-1.8V49.1z"/>
	<path id="XMLID_17_" class="st0" d="M276.1,76.9c-1.7,0-7.7,0.1-10.4,0.2v-1.7c1.6-0.3,1.9-0.9,2.5-1.6c1.6-1.8,1.6-6.2,1.6-9.2   c0-2.2,0.1-4.5,0.1-8.1c0-2.3-0.1-6.1-0.3-7.5c-0.2-3-0.7-7.7-6.8-7.7c-1.8,0-4,0.4-5.3,1.3v20.9c0,7.7,0.4,8.2,0.9,9.2   c0.7,1.6,1.8,2.4,3.4,2.6v1.7c-3-0.2-6.9-0.2-10.1-0.2c-1.6,0-7.4,0.1-10.7,0.2v-1.7c2.5-0.4,3.5-1.2,4.4-2.4c1.5-2,1.4-7.1,1.4-15   v-7c0-8.5,0.2-10.7-5.6-11.7v-1.9c1.9-0.1,6.6-0.3,10.5-1c1.2-0.2,4.1-0.7,5.1-1.3l0.8,0.7l-0.3,5.1c3.4-3.7,7.3-5.4,11.5-5.4   c6.4,0,9.3,3.1,10.7,6.9c1.2,3.2,1.2,7.1,1.2,9.8v11.9c0,5.8,0.3,7,1,8.3c1.1,1.9,3.5,2.5,5.1,2.9v1.7   C284.5,77,279.3,76.9,276.1,76.9"/>
	<path class="st0" d="M318.3,77.8c-2.3,0-5.7-0.5-6.6-5.3c-2.9,3.8-6.7,5.5-11.2,5.5c-10,0-15.8-7.9-15.8-20.2   c0-13.1,6.1-22.1,17.4-22.1c4,0,7.3,1.4,9.3,3.8v-5c0-6,0.2-11.5-1.1-13.2c-1.4-1.7-2.9-2.3-4.6-2.7v-2c2.6-0.1,8.2-0.4,11-0.7   c2.1-0.3,3.9-0.5,5.4-1.3l0.8,0.6c-0.6,5-0.7,17.3-0.7,28.8v20.7c0,3.4,0.1,4.7,1.2,5.8c0.7,0.7,2.1,1,4.4,0.9l0.3,1.4   C326.6,74.4,323.7,77.8,318.3,77.8 M311.4,41.4c-1.9-0.9-3.4-0.9-4.9-0.9c-10.7,0-10.2,14.5-10.2,16.9c0,9.9,3.4,15,9.9,15   c1,0,3.4-0.1,5.3-1.4V41.4z"/>
	<path class="st0" d="M337.4,54v0.3c0,7.2,1.1,17.4,13,17.4c4.2,0,7.1-1.2,7.6-1.6l0.8,1.5c-1.5,1.7-5.5,6-14.2,6   c-6,0-18.3-2.1-18.3-20.3c0-9.4,4.5-21.6,18.7-21.6c7.9,0,11.2,4.6,12.2,6.2c2.2,3.6,2.6,8.1,2.6,11.4V54H337.4z M349,49.1   c0-5.7-0.7-10.1-5.2-10.1c-5.9,0-6.4,7.4-6.4,12.6l11.6-1.8V49.1z"/>
	<path id="XMLID_12_" class="st0" d="M395,76.9c-1.7,0-7.7,0.1-10.4,0.2v-1.7c1.6-0.3,1.9-0.9,2.5-1.6c1.6-1.8,1.6-6.2,1.6-9.2   c0-2.2,0.1-4.5,0.1-8.1c0-2.3-0.1-6.1-0.3-7.5c-0.2-3-0.8-7.7-6.8-7.7c-1.8,0-4,0.4-5.3,1.3v20.9c0,7.7,0.5,8.2,0.9,9.2   c0.7,1.6,1.8,2.4,3.4,2.6v1.7c-3-0.2-6.9-0.2-10.1-0.2c-1.6,0-7.4,0.1-10.7,0.2v-1.7c2.5-0.4,3.5-1.2,4.4-2.4c1.5-2,1.4-7.1,1.4-15   v-7c0-8.5,0.2-10.7-5.6-11.7v-1.9c1.9-0.1,6.6-0.3,10.5-1c1.2-0.2,4.1-0.7,5.1-1.3l0.8,0.7l-0.3,5.1c3.4-3.7,7.3-5.4,11.5-5.4   c6.4,0,9.3,3.1,10.7,6.9c1.2,3.2,1.2,7.1,1.2,9.8v11.9c0,5.8,0.3,7,1,8.3c1.1,1.9,3.5,2.5,5.1,2.9v1.7   C403.4,77,398.2,76.9,395,76.9"/>
	<path id="XMLID_11_" class="st0" d="M416.8,77.7c-4,0-9.5-0.7-11-8c-0.7-3.1-0.6-7-0.6-11.2c0-6.5,0.2-11.2,0.2-17.7h-4.7v-2.2   c2.8-0.7,5.8-2.3,7.9-4.6c1.9-2.2,3.1-5.1,3.5-8.3h4.4c-0.4,4.3-0.3,7.4-0.5,11.3l12.1-0.5v4.7l-12.1-0.3v19.5   c0,6.5-0.5,12.2,7.2,12.2c1.5,0,2.9-0.2,4.3-0.7l0.7,1.6C424.2,77.7,417.7,77.7,416.8,77.7"/>
	<g>
		<path class="st0" d="M551.4,19.5c-5.9,2.4-7.3,2.7-11.5,3.2c-4.2,0.5-4.6-3.5-4.6-3.5l-4.1-1.2c-1.2,6.9-6.2,17.6-6.2,17.6    l3.8,1.5l-0.3,1.4l-4.5,0.8c0,0,1.5,2.4,2,6.2c1.3,8.8,7.4,16.6,7.4,16.6l-0.7,0.9l-0.8-0.4l-0.7,0.7c1.9,3.7,6.4,5.3,8.9,6.1    c2.6,0.8,7.4,2,7.4,2S545,77,549.4,78c4.5,1.1,4.1-4.9,4.1-4.9l3.9,1.4c0,0,8.5-37.1,10.7-47.2C570.2,17.2,557.4,17.1,551.4,19.5     M544.2,59.8c-9.1-9.3-9.1-22.3-9.1-22.3c13.8-1.8,23.8-10.3,23.8-10.3C558.2,30.9,544.2,59.8,544.2,59.8 M551.7,64.5    c0,0-1.4-0.1-2.8-0.8l10.7-21.6L551.7,64.5z"/>
		<polygon id="XMLID_7_" class="st0" points="545.6,57.6 535.8,37.5 538.1,36.4 547.8,56.5   "/>
		<polygon id="XMLID_6_" class="st0" points="548.5,54.5 538.8,34.4 541.1,33.3 550.8,53.4   "/>
		<polygon id="XMLID_5_" class="st0" points="551.2,51.4 541.4,31.3 543.7,30.2 553.5,50.3   "/>
		<polygon id="XMLID_4_" class="st0" points="554,48.9 544.3,28.7 546.5,27.7 556.2,47.8   "/>
		<polygon id="XMLID_3_" class="st0" points="555.5,44.2 546.6,26.2 548.8,25.1 557.7,43.1   "/>
		<polygon id="XMLID_2_" class="st0" points="557.3,40.9 549,23.7 550.8,22.8 559.1,40   "/>
		<polygon id="XMLID_1_" class="st0" points="559.3,38.9 550.9,21.7 552.7,20.9 561.1,38.1   "/>
	</g>
	<g>
		<path class="st0" d="M464.9,76.9c-1.7,0-7.6,0.1-10.9,0.2v-1.7c2.5-0.4,3.5-1.2,4.4-2.4c1.5-2,1.3-7.1,1.3-15v-7    c0-8.5,0.2-10.7-5.6-11.6v-1.9c1.9-0.1,6.5-0.3,10.4-1c1.2-0.2,4.4-0.7,5.6-1.3l0.8,0.7c-0.5,7.4-0.4,24.4-0.4,25.2v3.1    c0,5.8,0.2,7,0.9,8.3c1.1,1.9,3.5,2.5,5.2,2.9v1.7C474.3,77,468.2,76.9,464.9,76.9 M465.1,28.7c-4.2,0-6.2-3.1-6.2-6.4    c0-3.6,2-6.6,6.3-6.6c4.1,0,6.2,3,6.2,6.5C471.3,25.6,469.3,28.7,465.1,28.7"/>
		<path class="st0" d="M487.7,54v0.3c0,7.2,1.1,17.4,13,17.4c4.2,0,7.1-1.2,7.6-1.6l0.8,1.5c-1.5,1.7-5.5,6-14.2,6    c-6,0-18.3-2.1-18.3-20.3c0-9.4,4.5-21.6,18.7-21.6c7.9,0,11.2,4.6,12.2,6.2c2.2,3.6,2.6,8.1,2.6,11.4V54H487.7z M499.2,49.1    c0-5.7-0.7-10.1-5.2-10.1c-5.9,0-6.4,7.4-6.4,12.6l11.6-1.8V49.1z"/>
	</g>
	<path id="XMLID_39_" class="st0" d="M442.1,79.1c-4.2,0-6.2-3.1-6.2-6.4c0-3.6,2-6.6,6.3-6.6c4.1,0,6.2,3,6.2,6.5   C448.3,76.1,446.3,79.1,442.1,79.1"/>
</g>
</svg>