<svg xmlns="http://www.w3.org/2000/svg" viewBox="0 0 196.9 196.9"><defs><style>.cls-1,.cls-2,.cls-3,.cls-4{fill:none;stroke-linecap:round;}.cls-1,.cls-2{stroke:#0fccd8;}.cls-2{stroke-linejoin:round;}.cls-3,.cls-4{stroke:#12d66f;}.cls-3{stroke-width:4px;}.cls-4{stroke-width:20px;opacity:0.1;}</style></defs><title>Asset 25</title><g id="Layer_2" data-name="Layer 2"><g id="Local_Property_Exper" data-name="Local Property Exper"><path class="cls-1" d="M112.32 88.55V80.3c0-7.06-6.21-12.78-13.87-12.78S84.58 73.24 84.58 80.3v8.25"/><path class="cls-2" d="M86.74 87.09v7.25a11.71 11.71 0 0 0 23.41 0v-7.25s-14.58-.27-16.74-6.88c0 0-2.91 6.59-6.67 6.88"/><path class="cls-1" d="M98.45 94.36v-3.67M98.45 94.36h1.52M86.65 94.35a3.34 3.34 0 1 1 0-6.68M110.15 87.68a3.34 3.34 0 1 1 0 6.68"/><path class="cls-2" d="M93.45 104.65v4.38M103.45 104.65v4.38M100.45 129.38H78.82c-.7-7.6 1.13-11 3.07-12.62 1.47-1.25 3.14-1.62 6.85-4.17a47.8 47.8 0 0 0 4.58-3.59"/><path class="cls-2" d="M96.45 129.38h21.63c.7-7.6-1.13-11-3.07-12.62-1.47-1.25-3.14-1.62-6.85-4.17a47.8 47.8 0 0 1-4.58-3.57"/><path class="cls-2" d="M87.86 113.5a37.51 37.51 0 0 0 21.41 0l-10.79 10.79z"/><circle class="cls-3" cx="98.45" cy="98.45" r="77"/><circle class="cls-4" cx="98.45" cy="98.45" r="88.45"/></g></g></svg>