<svg id="Layer_1" xmlns="http://www.w3.org/2000/svg" viewBox="0 0 1787.7 387.7"><style>.st0{fill:#FFFFFF;}</style><path class="st0" d="M281.9 104.9c-9.5-3.7-21.6 1.9-34.1 15.7l-.2.2-.3.3.2.2-32.2 33.2-5.7 5.9c3.9 4.1 7.9 8.2 12 12.4 27.2 28.1 56.7 58.6 75.3 77.9V132.2c.1-12.6-6.1-23.8-15-27.3zM141.3 121.1l-.2-.2-.3-.3c-12.4-13.8-24.5-19.3-34.1-15.7-8.9 3.4-15.1 14.6-15 27.3v118.5c21.4-22.2 57.2-59.2 87.3-90.3l-37.9-39.1.2-.2z"/><path class="st0" d="M193.9 0C86.8 0 0 86.8 0 193.9 0 301 86.8 387.8 193.9 387.8c107.1 0 193.9-86.8 193.9-193.9C387.7 86.8 300.9 0 193.9 0zm124.7 275.5c-1.1 3.7-3.1 7-6.9 9.2-5.2 3-11.1-.4-16.5-4.5l-88.8-91.5-12.2-12.5L92.6 281.1c-5.1 3.7-10.6 6.4-15.4 3.6-4.2-2.4-6.2-6.2-7.2-10.4V132.2c0-21.7 11.6-40.8 28.9-47.5 10.7-4.1 32.4-6.8 57.8 21.1 2.6 2.6 17.7 18.1 37.6 38.8 20-20.6 35.1-36.2 37.6-38.8 25.4-28 47.1-25.3 57.8-21.1 17.4 6.7 29 25.8 28.9 47.5v143.3z"/><g><path class="st0 hiiden-logo" d="M623.2 91.9l-47.8 111.2-45.7-110.2c-8.6-10.8-21.2-17.6-35.1-18.6L482 78.4l-15.3 206 40.7.7 8.7-133.3 40 88.7 37.3.7 41.3-94 9.7 139.5 40.9-1.5-14-208.3c-16.8-4.7-37 1.6-48.1 15zM784 136.4c-14.4 0-27.4 3.2-39 9.5-11.6 6.4-20.6 15.6-27 27.6-6.3 12.1-9.5 24.6-9.5 37.5 0 16.9 3.2 31.2 9.5 42.9 6.3 11.8 15.6 20.7 27.8 26.8 12.2 6.1 25 9.1 38.4 9.1 21.7 0 39.7-7.3 54-21.9 14.3-14.6 21.5-33 21.5-55.2 0-22-7.1-40.3-21.3-54.7-14.1-14.4-32.3-21.6-54.4-21.6zm25.4 110.2c-6.8 7.8-15.3 11.6-25.4 11.6-10.1 0-18.6-3.9-25.5-11.6-6.9-7.7-10.3-18.9-10.3-33.5 0-14.6 3.4-25.7 10.3-33.5 6.9-7.7 15.4-11.6 25.5-11.6s18.5 3.9 25.4 11.6c6.8 7.8 10.2 18.8 10.2 33.2.1 14.8-3.4 26.1-10.2 33.8zM956.9 136.4c-14.4 0-27.4 3.2-39 9.5-11.6 6.4-20.6 15.6-27 27.6-6.3 12.1-9.5 24.6-9.5 37.5 0 16.9 3.2 31.2 9.5 42.9 6.3 11.8 15.6 20.7 27.8 26.8 12.2 6.1 25 9.1 38.4 9.1 21.7 0 39.7-7.3 54-21.9 14.3-14.6 21.5-33 21.5-55.2 0-22-7.1-40.3-21.3-54.7-14.1-14.4-32.2-21.6-54.4-21.6zm25.5 110.2c-6.8 7.8-15.3 11.6-25.4 11.6-10.1 0-18.6-3.9-25.5-11.6-6.9-7.7-10.3-18.9-10.3-33.5 0-14.6 3.4-25.7 10.3-33.5 6.9-7.7 15.4-11.6 25.5-11.6s18.5 3.9 25.4 11.6c6.8 7.8 10.3 18.8 10.3 33.2-.1 14.8-3.5 26.1-10.3 33.8zM1147.7 145c-9.1 31.1-27.4 94-29 98.8l-28.5-97.2c-11.4-12.2-31.4-13.5-47.1-6.8l52.2 147.3 46-1.3 50.9-147c-14.9-5.9-33.3-4.6-44.5 6.2zM1231.9 135.9H1216v125.9c2.1 12.5 11.2 24 26.4 26.2h16.4V160.3c-3.1-12.8-13.8-22.7-26.9-24.4zM1427.4 152.9c-3.7-4.8-9.2-8.7-16.4-11.8-7.2-3.1-15.2-4.6-23.9-4.6-19.8 0-36.1 8.3-49.2 24.8v-9.6c-2-5-4.7-7.9-11.3-9.8-2.4-.7-5.1-1.5-7.8-2.1h-17.4v146.9h39.6v-66.5c0-16.4 1-27.7 3-33.7 2-6.1 5.7-11 11.1-14.7 5.4-3.7 11.5-5.5 18.3-5.5 5.3 0 9.8 1.3 13.6 3.9 3.8 2.6 6.5 6.2 8.2 10.9 1.7 4.7 2.5 14.9 2.5 30.8v75h39.6v-91.3c0-11.3-.7-20-2.2-26.1-1.5-6.4-4-11.8-7.7-16.6zM1575.8 161.4c-11.8-16.7-26.9-25-45.1-25-17.6 0-32.4 6.8-44.3 20.4-11.9 13.6-17.8 33.2-17.8 59 0 20.5 4.5 37.7 13.6 51.5 11.5 17.4 27.2 26.2 47 26.2 17.7 0 32.4-8.2 44-24.7l-.2 22.4c0 9.1-.6 15.3-1.8 18.6-1.8 4.7-4.3 8.1-7.8 10.3-5.1 3.2-12.7 4.8-22.9 4.8-3.1 0-5.9-.2-8.3-.7-5.9-.1-11.9-1.3-16.8-2.7-5.3-1.6-10.3-5.8-15-8.8-2.8-1.8-6.4-4-8.5-6.9l-3.2-.4c-6.3 5.9-10.8 15.2-8.7 24 .5 2.4 1.6 4.6 2.9 6.7 1.8 2.2 3.8 4.3 6.1 6.3 10.4 9 28.1 13.4 53.1 13.4 13.2 0 24.1-1.4 32.8-4.3 8.6-2.9 15.5-6.9 20.7-12 5.2-5.1 9.2-12.2 12.1-21.1 2.9-9 4.3-22.5 4.3-40.6v-138h-36.2v21.6zm-11.9 87.6c-6.5 7.8-14.5 11.6-24 11.6-8.8 0-16.3-3.8-22.3-11.4-6-7.6-9-19.5-9-35.8 0-15.5 3-27.1 9-34.6 6-7.6 13.7-11.4 23-11.4 9.6 0 17.5 3.9 23.7 11.6 6.3 7.7 9.4 19.5 9.4 35.4 0 15.3-3.3 26.8-9.8 34.6zM1766.4 158c-14.2-14.4-32.3-21.6-54.5-21.6-14.4 0-27.4 3.2-39 9.5-11.6 6.4-20.6 15.6-27 27.6-6.3 12.1-9.5 24.6-9.5 37.5 0 16.9 3.2 31.2 9.5 42.9 6.3 11.8 15.6 20.7 27.8 26.8 12.2 6.1 25 9.1 38.4 9.1 21.7 0 39.7-7.3 54-21.9 14.3-14.6 21.5-33 21.5-55.2.1-22-7-40.2-21.2-54.7zm-29 88.6c-6.8 7.8-15.3 11.6-25.4 11.6-10.1 0-18.6-3.9-25.5-11.6-6.9-7.7-10.3-18.9-10.3-33.5 0-14.6 3.4-25.7 10.3-33.5 6.9-7.7 15.4-11.6 25.5-11.6s18.5 3.9 25.4 11.6c6.8 7.8 10.3 18.8 10.3 33.2-.1 14.8-3.5 26.1-10.3 33.8z"/><circle class="st0 hiiden-logo" cx="1234.7" cy="87.1" r="23.3"/></g></svg>