<svg id="Layer_1" xmlns="http://www.w3.org/2000/svg" viewBox="0 0 387.7 387.7"><style>.st0{fill:#FFFFFF;}</style><path class="st0" d="M140.8 131l-.2-.2-.3-.3c-12.4-13.8-24.5-19.3-34.1-15.7-8.9 3.4-15.1 14.6-15 27.3v118.5c21.4-22.2 57.2-59.2 87.3-90.3l-37.9-39.1.2-.2zM281.4 114.8c-9.5-3.7-21.6 1.9-34.1 15.7l-.2.2-.3.3.2.2-32.2 33.2-5.7 5.9c3.9 4.1 7.9 8.2 12 12.4 27.2 28.1 56.7 58.6 75.3 77.9V142c.1-12.6-6.1-23.8-15-27.2z"/><path class="st0" d="M193.9 0C86.8 0 0 86.8 0 193.9 0 301 86.8 387.8 193.9 387.8c107.1 0 193.9-86.8 193.9-193.9C387.7 86.8 300.9 0 193.9 0zm124.3 285.4c-1.1 3.7-3.1 7-6.9 9.2-5.2 3-11.1-.4-16.5-4.5L206 198.6 193.9 186 92.1 290.9c-5.1 3.7-10.6 6.4-15.4 3.6-4.2-2.4-6.2-6.2-7.2-10.4V142c-.1-21.7 11.6-40.8 28.9-47.5 10.7-4.1 32.4-6.8 57.8 21.1 2.6 2.6 17.7 18.1 37.6 38.8 20-20.6 35.1-36.2 37.6-38.8 25.4-28 47.1-25.3 57.8-21.1 17.4 6.7 29 25.8 28.9 47.5v143.4z"/></svg>