<svg xmlns="http://www.w3.org/2000/svg" viewBox="0 0 63 54.21"><defs><style>.cls-1{fill:none;stroke:#0fccd8;stroke-linecap:round;}.cls-2{fill:#0fccd8;}</style></defs><title>marketing</title><g id="Layer_2" data-name="Layer 2"><g id="Digital_Marketing" data-name="Digital Marketing"><path class="cls-1" d="M2.57 5.54h57.86v28.71a2.81 2.81 0 0 1-2.81 2.81H5.38a2.81 2.81 0 0 1-2.81-2.81V5.54zM27.93 37.06v16.65M35.07 37.06v16.65M2.57 40.95h57.86M28.99 3.56h-2.83M36.84 3.56h-2.83M21.15 3.56H.5v1.98h62V3.56H41.91"/><path class="cls-1" d="M21.15 2.04h5.01v2.51h-5.01zM28.99 2.04H34v2.51h-5.01zM36.84 2.04h5.01v2.51h-5.01zM23.66 2.04V.5M39.34 2.04V.5M31.5 2.04V.5"/><path class="cls-2" d="M30 25l-.46-1.31h-2.65L26.43 25h-1.1l2.31-6.44h1.22l2.3 6.44zm-2.87-2.14h2.17l-1.05-3zM34.26 18.55a3.48 3.48 0 0 1 2.49.87 3.08 3.08 0 0 1 .93 2.36 3 3 0 0 1-.93 2.34 3.52 3.52 0 0 1-2.49.86h-2.1v-6.43zm-1 5.63h1a2.27 2.27 0 0 0 1.74-.64 2.45 2.45 0 0 0 .61-1.75A2.43 2.43 0 0 0 36 20a2.28 2.28 0 0 0-1.73-.63h-1z"/></g></g></svg>