<svg xmlns="http://www.w3.org/2000/svg" viewBox="0 0 66.97 58.07"><defs><style>.cls-1{fill:none;stroke:#0fccd8;stroke-linecap:round;stroke-miterlimit:10;}</style></defs><title>personal_service</title><g id="Layer_2" data-name="Layer 2"><g id="Personal_Service" data-name="Personal Service"><path class="cls-1" d="M33 46.91l-8.53 3.49a3.73 3.73 0 0 0-2 4.85 3.73 3.73 0 0 0 4.85 2l15.19-6.2s15.83-6 16.68-12.23"/><path class="cls-1" d="M34.14 46.46l-15.19 6.2a3.73 3.73 0 0 1-4.85-2 3.73 3.73 0 0 1 2-4.85l13.27-5.41"/><path class="cls-1" d="M29.47 40.5l-15.19 6.2a3.73 3.73 0 0 1-4.85-2 3.73 3.73 0 0 1 2-4.85l15.19-6.2M26.66 33.61l-12.45 5.07a3.73 3.73 0 0 1-4.85-2 3.73 3.73 0 0 1 2-4.85l12.45-5.08"/><rect class="cls-1" x="52.86" y="9.65" width="9.05" height="29.11" rx="1.99" ry="1.99" transform="rotate(-22.18 57.4 24.204)"/><rect class="cls-1" x="5.18" y=".5" width="9.05" height="29.11" rx="1.99" ry="1.99" transform="rotate(22.82 9.692 15.06)"/><path class="cls-1" d="M33 15.35s-2.59 11.8-16.34 6M18.75 5.22a6.13 6.13 0 0 1 6.79-1.29l18.6 7.82a3.73 3.73 0 0 1 2 4.88 3.73 3.73 0 0 1-4.88 2L28 13.07"/></g></g></svg>