<svg id="Layer_1" xmlns="http://www.w3.org/2000/svg" viewBox="0 0 196.9 196.9"><style>.st0{fill:none;stroke:#0FCCD8;stroke-linecap:round;} .st1{fill:none;stroke:#0FCCD8;stroke-linecap:round;stroke-linejoin:round;} .st2{fill:none;stroke:#128BD6;stroke-width:4;stroke-linecap:round;} .st3{opacity:0.1;fill:none;stroke:#128BD6;stroke-width:20;stroke-linecap:round;enable-background:new ;}</style><title>Asset 25</title><path class="st0" d="M142.1 89.6v-8.2c0-7.1-6.2-12.8-13.9-12.8s-13.9 5.7-13.9 12.8v8.2"/><path class="st1" d="M139.9 88.2v7.2c-.2 6.5-5.6 11.6-12 11.4-6.2-.2-11.2-5.2-11.4-11.4v-7.2s2.5-15 9.5-12 11 0 11 0l2.9 12z"/><path class="st0" d="M128.2 95.5v-3.7M128.2 95.5h1.6M116.4 95.5c-1.8 0-3.3-1.5-3.3-3.3s1.5-3.3 3.3-3.3M139.9 88.8c1.8 0 3.3 1.5 3.3 3.3 0 1.8-1.5 3.3-3.3 3.3"/><path class="st1" d="M123.2 105.8v4.3M133.2 105.8v4.3M130.2 130.5h-21.6c-.7-7.6 1.1-11 3.1-12.6 1.5-1.2 3.1-1.6 6.8-4.2 1.6-1.1 3.1-2.3 4.6-3.6"/><path class="st1" d="M126.2 130.5h21.6c.7-7.6-1.1-11-3.1-12.6-1.5-1.2-3.1-1.6-6.9-4.2-1.6-1.1-3.1-2.3-4.6-3.6"/><path class="st0" d="M117.5 114.6c7 2.1 14.4 2.1 21.4 0M54.9 89.4c-.3-2-2.2-13 5.6-19.1 3.8-3 6.3-3.3 8.4-3.3"/><path class="st0" d="M82.7 89.4c.3-2 2.2-13-5.6-19.1-3.8-3-6.2-3.3-8.4-3.3"/><path class="st1" d="M80.4 88.2v7.2c-.2 6.5-5.6 11.6-12 11.4-6.2-.2-11.2-5.2-11.4-11.4v-7.2s2.1-9.5 9.5-9.1 10.8-2.4 10.8-2.4l3.1 11.5z"/><path class="st0" d="M68.7 95.5v-3.7M68.7 95.5h1.5M54.9 89.4c.6-.4 1.3-.7 2-.7M56.9 95.5c-1.8 0-3.3-1.5-3.3-3.4 0-1 .5-2 1.3-2.6M80.4 88.8c1.8 0 3.3 1.5 3.3 3.3s-1.5 3.3-3.3 3.3"/><path class="st1" d="M63.7 105.8v4.3M73.7 105.8v4.3M70.7 130.5H49c-.7-7.6 1.1-11 3.1-12.6 1.5-1.2 3.1-1.6 6.8-4.2 1.6-1.1 3.1-2.3 4.6-3.6"/><path class="st1" d="M66.7 130.5h21.6c.7-7.6-1.1-11-3.1-12.6-1.5-1.2-3.1-1.6-6.8-4.2-1.6-1.1-3.1-2.3-4.6-3.6"/><path class="st0" d="M58 114.6c7 2.1 14.4 2.1 21.4 0M64.5 67.4c.6-1.7 2.3-2.9 4.1-2.8M72.8 67.4c-.6-1.7-2.3-2.9-4.1-2.8"/><circle class="st2" cx="98.4" cy="97.6" r="77"/><circle class="st3" cx="98.4" cy="97.6" r="88.5"/></svg>