<svg xmlns="http://www.w3.org/2000/svg" viewBox="0 0 72.01 46.13"><defs><style>.cls-1{fill:none;}.cls-1,.cls-2{stroke:#0fccd8;stroke-linecap:round;stroke-miterlimit:10;}.cls-2{fill:#0fccd8;}</style></defs><title>speed</title><g id="Layer_2" data-name="Layer 2"><g id="Speed"><path class="cls-1" d="M31.4 45.63a25.07 25.07 0 1 1 30.07 0M46.44 3v6.03M69 25.57h-6.03M62.31 9.41l-4.26 4.26M34.25 13.67l-4.26-4.26M56.35 35.63l-9.91-9.92M34.25 13.67l-4.26-4.26M23.29 25.57h6.03M29.99 41.73l4.26-4.26M58.05 37.47l4.26 4.26M54.82 4.62l-2.24 5.6M67.39 33.95l-5.6-2.24M30.55 19.21l-5.6-2.24M67.18 16.46l-5.54 2.38M39.54 9.99l-2.37-5.54M25.16 34.46l5.54-2.37"/><circle class="cls-2" cx="46.59" cy="25.71" r=".95"/><path class="cls-1" d="M31.41 45.63h30.06M26.67 40.85a13.9 13.9 0 0 1-4 4.79M6 45.63a13.84 13.84 0 0 1 15.5-22.9M14.34 22.1v3.33M7.61 27.99l-2.35-2.36M11.24 27.54l3.1 7.1M21.37 27.36l-.62.63M1.56 34.56h3.33M5.26 43.48l2.35-2.36M20.75 41.12l2.35 2.36M18.97 22.99l-1.24 3.09M5.57 31.04l-3.09-1.23M10.53 25.96L9.22 22.9M22.81 37.95l2.49.99M2.59 39.46l3.06-1.31"/><circle class="cls-2" cx="14.42" cy="34.64" r=".52"/><path class="cls-1" d="M6.04 45.63h16.6"/></g></g></svg>