<?xml version="1.0" encoding="UTF-8" standalone="no"?>
<svg xmlns:dc="http://purl.org/dc/elements/1.1/" xmlns:cc="http://creativecommons.org/ns#" xmlns:rdf="http://www.w3.org/1999/02/22-rdf-syntax-ns#" xmlns:svg="http://www.w3.org/2000/svg" xmlns="http://www.w3.org/2000/svg" viewBox="0 0 837.65332 166.03999" height="166.03999" width="837.65332" xml:space="preserve" id="svg2" version="1.1"><metadata id="metadata8"><rdf:RDF><cc:Work rdf:about=""><dc:format>image/svg+xml</dc:format><dc:type rdf:resource="http://purl.org/dc/dcmitype/StillImage"/></cc:Work></rdf:RDF></metadata><defs id="defs6"/><g transform="matrix(1.3333333,0,0,-1.3333333,0,166.04)" id="g10"><g transform="scale(0.1)" id="g12"><path id="path14" style="fill:#5e6776;fill-opacity:1;fill-rule:nonzero;stroke:none" d="m 2418.37,718.137 c -18.49,7.843 -42.79,5.851 -62.84,6.164 0,-2.285 -0.52,-4.485 0.62,-6.164 2.25,0 6.79,-1.434 6.79,-1.434 v -32.051 c -1.68,0 -5.68,-0.195 -6.79,-0.742 0,-2.265 -0.62,-4.492 0.53,-6.152 19.64,1.094 38.7,-5.625 57.24,0.539 7.8,5.027 12.88,13.457 12.88,22.984 -0.54,6.184 -2.21,13.508 -8.43,16.856 z m -24.09,-33.68 -10.44,0.195 -0.2,31.211 c 6.71,1.133 12.36,-0.527 16.81,-5.066 6.19,-7.844 3.89,-22.395 -6.17,-26.34"/><path id="path16" style="fill:#5e6776;fill-opacity:1;fill-rule:nonzero;stroke:none" d="m 2472.21,943.578 c -0.09,0.156 7.69,-2.433 7.69,-2.433 l 2.41,-3.172 3.73,42.976 -3.73,3 c 0,0 -5.64,-7.91 -18.29,-7.91 -6.91,0 -14.31,1.465 -20.37,1.719 2.21,-7.285 -0.98,-15.871 3.56,-24.336 4.87,-9.043 14.93,-10.418 25,-9.844 z m -19.56,27.149 6.18,-2.247 c 0,0 -2.46,-4.796 -1.03,-7.265 1.72,-3.047 4.71,-6.203 7.74,-4.524 4.49,2.434 7.32,7.825 5.65,11.789 h 4.45 l 0.65,-4.042 c -0.61,-7.274 -2.82,-12.52 -12.67,-11.973 -9.04,0.508 -12.32,10.058 -10.97,18.262"/><path id="path18" style="fill:#5e6776;fill-opacity:1;fill-rule:nonzero;stroke:none" d="m 2537.21,948.898 c 14.24,2.063 15.22,21.575 14.68,35.051 -8.96,-4.472 -12.92,-6.23 -21.84,-6.562 -9.04,-0.352 -16.49,8.242 -16.49,8.242 l -3.19,-1.68 8.43,-44.297 c 0,0 4.78,7.325 18.41,9.246 z m -15.58,22.18 h 4.45 c -1.68,-3.965 1.15,-9.355 5.57,-11.836 3.1,-1.633 6.05,1.524 7.81,4.571 1.43,2.468 -1.07,7.265 -1.07,7.265 l 6.22,2.195 c 1.31,-8.152 -1.96,-17.703 -11,-18.21 -9.82,-0.547 -12.03,4.695 -12.6,11.972 l 0.62,4.043"/><path id="path20" style="fill:#5e6776;fill-opacity:1;fill-rule:nonzero;stroke:none" d="m 2963.79,831.742 c 0,37.852 9.61,75.899 28.47,107.481 9.04,15.195 19.43,25.547 19.43,25.547 l -0.16,27.023 c -10.64,0.594 -21.35,4.773 -28.92,13.447 -7.28,8.42 -9.78,14.24 -9.78,26.85 0,13.12 9.41,26.85 23.36,31.08 13.29,4.03 27.45,1.31 36.2,-8.4 7.08,-7.94 8.43,-14.93 8.43,-24.31 0,-11.65 -7.77,-20.69 -17.18,-20.69 -5.85,0 -12.6,1.31 -16.49,8.43 -2.86,5.27 -3.06,15.11 2.9,15.11 8.1,0 0.99,-5.75 5.86,-7.99 2.66,-1.27 6.34,-0.88 7.73,1.91 1.63,3.23 0.98,7.45 -1.8,10.56 -3.96,4.52 -9.37,5.28 -15.09,3.35 -8.31,-2.71 -11.54,-12.27 -9.33,-20.7 3.27,-12.31 10.47,-15.79 20.08,-17.34 l 34,-0.09 19.1,12.91 23.64,11.64 c 0,0 -2.24,11.54 -6.17,14.87 l -29.13,-15.52 c -0.98,15.87 -7.81,34.34 -20.25,44.56 -12.44,10.14 -33.75,15.12 -52.89,6.92 -22.34,-9.63 -32.69,-31.72 -31.22,-54.04 -15.13,-19.11 -46.54,-35.362 -33.09,-63.975 -13.45,-0.535 -20.21,-16.25 -29.17,-23.543 l -17.95,14.578 14.56,10.106 c 12.89,15.156 19.63,37.023 11.82,56.634 -6.21,20.23 -24.13,40.95 -46.06,43.77 -10.03,2.21 -19.59,0 -26.88,-6.15 -5.07,-5.07 -6.21,-12.91 -5.6,-19.11 2.25,-6.7 7.81,-12.31 15.09,-11.77 9.04,2.79 -3.31,7.29 0,12.9 1.15,4.48 6.75,5.07 11.3,4.48 6.7,-2.81 10.63,-10.09 8.95,-16.8 -2.25,-5.6 -8.42,-9.55 -14.03,-10.67 -39.84,1.68 -82.43,30.27 -119.45,3.92 -20.74,-10.08 -31.42,-31.411 -33.66,-52.72 -0.58,-22.422 7.32,-41.484 23.55,-55.508 38.71,-31.953 92.54,-7.285 133.45,3.906 7.28,1.719 16.85,1.719 20.25,-5.585 -17.39,-16.29 -36.45,-33.672 -37.64,-57.219 -57.14,11.769 -105.42,38.703 -162.6,51.015 -6.76,-0.554 -8.43,7.883 -10.15,11.789 l 21.35,-7.304 1.11,1.719 c -8.96,16.804 -16.24,34.765 -23.52,51.562 7.28,-0.535 12.89,-7.285 20.17,-6.16 v 3.394 c -25.78,28.02 -35.88,75.701 -78.55,82.981 -1.06,8.43 3.97,15.71 3.4,23.54 h -5.08 l -41.48,-11.75 -1.68,1.67 c 2.79,11.8 10.68,21.31 16.82,31.42 -3.39,5.05 5.08,7.87 2.26,14.03 -1.68,7.28 -10.68,6.73 -15.68,5.6 1.11,19.07 -18.53,-1.67 -21.36,13.99 -3.92,2.81 -9.52,1.13 -12.88,-1.68 l -5.03,6.76 c -4.54,1.12 -10.1,0 -12.89,-1.68 -1.72,10.1 -14.02,16.26 -9.57,27.49 4.51,0.53 7.85,-0.6 12.36,-1.15 0.57,4.48 0.57,12.38 0,17.38 l -14.57,-0.54 v 15.68 c -6.22,0.58 -11.29,-1.64 -17.96,-1.1 0,-5.05 2.79,-11.23 2.79,-16.83 h -15.14 c -0.57,-5.61 1.11,-11.19 1.68,-16.83 5.03,-0.56 9.53,4.52 14.6,1.12 3.35,-11.78 -5.6,-18.52 -7.28,-28.02 l -1.14,1.68 c -4.5,0.53 -8.43,1.67 -11.83,-1.68 -1.06,-15.18 -12.31,4.48 -17.91,-6.76 1.14,-15.11 -13.46,2.28 -17.39,-8.96 2.82,-13.45 -10.63,-3.34 -14.56,-11.22 -5.03,-6.16 4.45,-11.77 1.68,-17.39 10.05,-7.28 17.95,-19.06 21.31,-30.29 -15.14,3.39 -33.62,1.68 -47.66,6.75 0.57,-8.96 7.28,-16.24 6.71,-24.67 -26.39,-6.75 -43.16,-33.095 -49.33,-57.752 -3.93,-13.507 -16.29,-24.14 -15.71,-38.73 5.56,-0.566 10.1,7.305 15.13,5.078 -4.5,-20.234 -16.85,-37.023 -18.53,-58.359 5.6,-3.926 12.93,8.426 20.21,8.426 -2.82,-21.903 0,-43.192 -6.71,-63.387 5.03,-9.551 12.31,7.832 19.06,6.719 -0.57,-7.247 2.21,-16.27 0,-23 -47.65,-2.223 -90.32,-17.93 -136.26,-24.637 -17.43,-6.738 -18,-27.52 -24.13,-42.09 -3.4,-12.91 15.71,-11.77 12.31,-24.082 -74.57,-0.598 -145.84,10.078 -217.02,16.797 31.95,-24.668 66.19,-44.883 100.97,-63.387 v -1.683 c -37.6,-16.836 -77.44,-26.348 -117.29,-37.02 99.28,-13.984 200.77,-23.535 306.28,-20.148 38.69,1.671 77.93,2.765 114.37,11.195 8.43,5.594 2.3,17.359 6.18,24.109 117.24,-15.156 233.87,-57.187 358.39,-31.418 16.81,0 7.28,19.66 11.21,26.934 57.19,-1.121 109.96,-25.262 168.25,-14.578 9.54,-13.477 23.57,-20.188 39.27,-16.836 26.93,3.945 41.49,44.328 73.47,29.148 23.97,-16.121 68.53,-35.144 109.43,-36.855 l -16.24,17.179 c -118.71,22.332 -179.87,120.723 -179.87,212.969 z m 5.16,177.698 c 3.88,-16.174 22.57,-25.1 37.18,-26.78 -12.88,-11.777 -16.82,-33.683 -36.49,-37.031 -12.88,-1.133 -24.1,8.418 -28.02,19.648 -6.75,23.543 17.26,26.778 27.33,44.163 z m -44.31,-67.073 c 5.6,3.36 14.04,4.481 20.16,1.68 7.91,-3.945 15.72,-10.656 16.25,-20.188 -0.53,-34.234 -15.09,-59.617 -12.89,-98.152 1.43,-23.953 3.93,-41.504 10.68,-60.566 -31.95,22.91 -33.87,46.855 -33.09,89.179 0.24,13.36 -10.8,23.418 -22.17,30.821 -8.8,5.75 -17.68,3.398 -26.06,3.953 17.34,16.23 33.66,34.765 47.12,53.273 z m -50.85,32.051 c -10.05,-8.418 -24.09,-8.977 -37.02,-7.305 -33.09,-0.547 -66.18,27.5 -96.46,4.492 l -3.36,-5.039 c -1.67,5.039 1.16,15.664 9.5,18.536 43.81,20.738 122.27,-48.809 135.77,29.138 5.04,-13.47 3.36,-30.291 -8.43,-39.822 z m -52.73,-24.129 c -21.84,-3.351 -42.58,-16.262 -65.03,-9.516 -6.19,2.805 -5.61,10.637 -3.36,15.715 6.18,8.36 16.81,3.352 25.81,3.887 z m 32.56,-16.809 c -43.72,-5.605 -106.03,-47.128 -139.12,4.493 -8.96,16.797 -7.28,40.925 5.07,55.496 39.84,42.111 92.54,-4.481 138.52,8.431 6.74,5.6 13.99,12.34 13.45,21.85 l -0.52,11.23 c 5.6,-7.83 6.12,-21.32 1.67,-30.29 -2.29,-7.272 -10.11,-13.436 -17.39,-16.229 -39.84,-6.231 -76.29,24.099 -114.99,6.152 -10.64,-7.832 -15.71,-19.062 -16.24,-31.425 0,-8.973 2.25,-16.809 8.39,-22.961 33.09,-28.075 71.79,3.351 106.56,6.711 19.07,2.792 38.7,-2.239 49.38,-16.836 -1.68,-2.786 -5.04,-5.586 -7.28,-7.832 -8.43,5.605 -16.86,11.757 -27.5,11.21 z m -1.67,-67.851 c 7.81,10.078 17.91,13.996 29.17,14.59 10.63,-0.594 20.12,-3.906 26.92,-13.465 16.24,-23.031 -9,-62.551 24.09,-92.57 -7.85,2.265 -13.99,-2.207 -21.31,-1.68 -20.21,17.976 -17.96,47.129 -15.14,72.344 -1.68,5.07 -3.93,11.23 -10.1,14.035 -7.28,1.676 -15.72,0 -19.6,-7.289 -0.57,-4.469 0.53,-11.778 6.1,-12.899 2.29,0 3.96,2.246 5.06,3.926 -1.1,2.227 -2.2,3.906 -1.67,6.75 1.67,2.223 5.65,2.223 8.43,1.082 4.5,-3.926 2.82,-8.953 1.14,-14.031 -5.6,-6.164 -13.5,-7.832 -21.3,-6.164 -5.08,2.812 -11.79,7.305 -13.47,12.91 -2.86,7.285 -1.67,16.309 1.68,22.461 z m -175,-30.879 c 4.46,6.191 0,14.043 -1.11,20.781 l -8.42,28.016 c 57.18,-10.633 107.66,-43.172 167.14,-51.563 2.74,-9.558 12.85,-15.75 20.74,-19.109 l 20.17,-1.668 c 1.15,-18.519 7.89,-34.23 19.07,-48.215 -8.43,-9.004 -14.04,-20.195 -19.07,-29.191 -48.8,7.289 -98.14,19.113 -150.87,13.488 9,13.457 3.93,30.293 0,44.875 -8.38,6.16 -11.25,20.184 -23.56,21.305 -8.39,-9.547 9,-16.824 9,-27.469 4.46,-14.617 1.68,-30.879 -7.32,-42.109 -12.31,-6.153 -34.16,-12.911 -33.62,-31.953 -27.5,0 -52.17,5.058 -77.98,8.417 -11.74,10.098 -19.63,26.934 -37.01,24.122 -3.4,1.679 -7.29,2.812 -11.18,1.132 2.22,-10.089 -15.18,-7.324 -7.9,-17.961 -9.52,-3.953 -6.12,11.77 -12.88,15.149 1.15,5.039 7.28,12.871 -1.14,15.117 -3.89,0.594 -6.75,-3.328 -7.28,-6.152 5.6,-10.672 -14,-8.965 -6.14,-19.629 -3.36,-1.68 -7.86,2.793 -8.42,6.152 1.1,6.192 -8.44,9.551 -3.36,16.301 2.21,1.082 2.21,5.008 0,6.687 -1.68,3.946 -6.22,1.133 -8.43,0 -4.5,-5.011 3.93,-17.382 -8.43,-16.242 l -0.53,-7.293 c -11.24,-2.812 -5.6,11.778 -14.03,14.578 0.53,5.598 9.53,12.356 1.11,16.262 -3.36,0 -7.33,-2.226 -8.39,-6.172 0,-5.019 -2.29,-10.644 -8.43,-10.644 l -0.53,-8.965 c -11.25,-1.707 -5.07,12.871 -13.46,16.269 1.07,11.758 7.29,23.536 17.39,28.614 45.94,-4.492 94.74,21.269 135.69,-6.758 18.48,10.098 48.23,-11.777 57.76,15.723 l 3.97,16.824 c 6.1,-4.52 11.74,-11.219 17.92,-14.578 5.03,4.492 0,9.511 -0.54,13.984 -5.06,13.508 -9,26.941 -10.67,42.051 8.43,-3.926 12.35,-15.11 20.74,-20.176 z m -255.75,84.16 c 11.25,-43.203 -43.2,-65.058 -49.95,-103.762 -7.29,43.735 34.77,68.399 49.95,103.762 z m -64.52,-59.433 c -6.14,40.925 39.32,63.914 56.08,93.066 -1.67,-38.145 -40.9,-61.16 -56.08,-93.066 z m 31.42,-70.715 c -9.49,30.277 24.14,49.933 37.02,74.601 5.65,8.418 8.43,17.383 11.25,26.934 13.42,-42.649 -32.57,-67.317 -48.27,-101.535 z m 6.18,-35.848 -10.64,1.074 c 1.1,2.274 3.31,4.52 5.6,6.758 3.36,-0.558 3.36,-5.078 5.04,-7.832 z m 12.88,28.008 c 6.76,24.676 44.92,42.598 41.52,74.609 6.75,-9.562 7.86,-23.547 4.46,-34.218 -6.7,-20.196 -31.42,-26.942 -45.98,-40.391 z m 9.58,-12.344 -0.58,-17.941 -10.14,1.125 c 0.62,6.152 5.07,12.312 10.72,16.816 z m 114.37,79.668 -50.48,-2.805 c -3.88,1.086 -5.6,6.153 -2.78,9.485 8.38,6.758 17.38,14.062 28.06,14.59 11.21,-2.207 22.38,-5.032 29.7,-13.438 1.1,-3.945 -1.1,-7.285 -4.5,-7.832 z m 23,-37.039 -16.25,1.668 c -2.25,6.758 -5.6,13.508 -11.78,19.109 13.46,2.231 21.89,-11.238 28.03,-20.777 z m -33.64,-1.125 -23.6,-2.207 c 0.62,8.359 2.86,18.508 10.15,23.535 9.53,-2.82 11.78,-12.91 13.45,-21.328 z m -37.02,19.648 6.76,0.528 c -6.76,-6.153 -10.11,-14.551 -11.26,-24.113 l -14.03,-0.547 c 3.93,7.871 7.29,20.785 18.53,24.132 z m 158.15,11.77 c -19.63,31.414 -70.11,46.531 -61.68,88.602 14.56,-32.52 62.82,-48.231 61.68,-88.602 z m -56.61,122.262 c 21.26,-27.469 66.19,-42.047 63.94,-81.891 -19.07,28.621 -63.94,43.199 -63.94,81.891 z m 44.87,-160.379 c -20.21,30.234 -66.19,49.89 -60.58,92.519 10.1,-35.343 67.25,-49.933 60.58,-92.519 z m -20.21,-1.731 c -14.03,3.946 -33.62,3.946 -43.23,20.246 -7.25,11.719 -11.17,29.102 -4.42,43.133 0.53,-28.015 29.69,-45.398 47.65,-63.379 z m 34.21,178.371 c -16.29,11.231 -46.52,17.918 -47.71,44.327 22.46,-5.07 35.96,-25.811 47.71,-44.327 z m 9,-48.789 c -23.61,23.536 -67.34,32.528 -70.12,70.106 20.74,-27.469 62.22,-33.094 70.12,-70.106 z m -123.95,143.006 c 5.6,-3.36 11.36,1 11.77,6.19 0.33,4.77 -5.36,7.64 -9.28,8.17 l -0.82,10.9 24.09,-10.63 -1.68,-7.35 -7.32,3.39 -4.41,-13.44 5.03,-2.26 c 0,0 -2.74,-9.25 -14.03,-6.75 -4.67,1.06 -5.03,7.3 -3.35,11.78 z m -5.08,26.94 c -0.16,0.08 -6.01,-10.15 -6.18,-10.66 -3.39,-0.57 -8.99,1.27 -9.52,-4.34 -2.83,-7.86 2.82,-13.62 8.99,-11.37 0,-3.34 -2.45,-8.04 -6.75,-9.53 -4.99,-1.72 -10.76,0.88 -12.47,5.4 l 0.12,3.56 5.72,-0.2 -0.12,17.5 -6.13,0.09 0.53,6.75 c 0,0 -5.77,1.53 -8.84,1.2 -3.11,-0.35 -7.28,-1.27 -7.28,-1.27 v -7.76 l -5.15,-0.03 -0.17,-16.96 6.87,0.12 c 0,0 0.25,-8.75 -5.03,-10.08 -8.67,-2.19 -11.37,-0.98 -13.05,4.6 l -0.45,3.8 c 0,0 7.98,-0.2 7.78,6.43 -0.13,4.09 -0.54,8.67 -5.32,9.21 -3.27,0.38 -3.93,-1.46 -7.37,-1.46 -0.44,0.49 -3.35,11.64 -3.47,12.2 20.74,6.72 45.4,10.08 67.29,2.8 z m 20.78,-53.29 c -0.62,-1.67 -2.25,-2.82 -3.35,-3.94 -31.42,6.15 -66.77,3.39 -95.93,-5.57 -1.68,1.08 -3.35,1.68 -4.5,3.35 28.63,12.32 70.69,14.04 103.78,6.16 z m -114.99,25.79 c -5.03,1.8 -5.48,6.68 -5.48,6.68 6.71,6.15 17.26,11.27 25.65,15.19 0.57,-0.12 -0.57,-11.27 0.04,-11.31 -0.94,-2.56 -3.16,-0.76 -6.75,-5.36 -3.03,-3.85 0.74,-11.51 5.6,-11.19 4.3,0.31 6.02,0.51 6.14,0.39 2.29,-6.75 -2.66,-9.83 -7.81,-12.31 -7.33,-3.56 -10.64,6.15 -10.64,6.15 l 5.61,2.81 -7.29,13.99 c 0,0 -2.45,-6 -5.07,-5.04 z m -23.6,-43.72 c 17.38,2.22 33.71,-2.81 46.06,-14.62 1.31,2.18 4.46,3.38 5.56,5.66 0,0.55 0,1.67 -0.53,2.21 10.72,3.31 22.26,6.46 34.12,7.25 14.11,1.01 28.67,-0.87 42.71,-3.31 0.57,-2.26 2.77,-5.6 5.6,-5.6 7.28,3.92 11.17,12.31 19.1,15.71 6.71,2.2 15.67,3.88 22.42,3.33 -2.29,-10.08 -2.82,-20.72 -11.78,-28.61 -3.4,-4.48 -10.64,-1.66 -11.78,-7.29 12.89,-17.909 11.21,-45.975 6.71,-67.303 -2.82,-5.039 -5.04,-8.887 -13.5,-11.77 -3.03,-1.062 -8.22,-1.14 -8.22,-1.14 l -0.7,-3.36 11.29,-7.148 -1.02,-6.496 -10.76,5.05 -1.55,-5.683 11.04,-7.16 -1.15,-5.438 -11.25,4.481 -2.2,-6.746 11.33,-6.836 -2.26,-10.039 -34.28,13.273 c 0,0 0,15.203 -0.03,15.359 5.6,2.821 11.2,7.891 12.88,14.032 0.57,3.351 1.68,8.976 -1.68,11.789 -6.95,-4.61 -12.27,-6.758 -20.9,-7.492 -10.68,-0.985 -17.14,2.246 -21.15,4.679 -3.35,-5.625 -1.51,-11.054 2.21,-16.25 3.23,-4.492 12.15,-7.207 12.15,-7.207 v -16.222 l -32.32,-15.282 -2.95,8.84 10.36,6.442 -2.29,7.792 -10.72,-6.238 -2.21,5.235 11.66,7.461 -2.62,7.128 -11.91,-6.386 -1.34,4.121 11.65,8.75 c 0,0 -0.65,4.187 -0.73,4.519 -9.58,1.145 -21.31,3.352 -24.67,14.582 -5.6,17.383 -6.22,38.711 -5.07,57.227 0.53,2.801 7.28,4.48 2.78,7.285 -16.24,-0.598 -22.99,17.941 -28.06,29.141 z m -11.74,-19.11 c -0.58,-22.389 -24.68,-34.178 -40.38,-46.53 6.71,19.063 21.31,38.16 40.38,46.53 z m -51.05,-107.116 c 5.64,38.125 44.87,57.227 67.86,83.575 0.57,-16.231 -12.31,-27.469 -22.99,-38.125 z M 2232.2,768.02 c 25.81,0 47.13,9.562 70.65,14.582 22.46,3.398 44.87,-1.094 65.08,6.16 1.1,-11.18 7.28,-21.864 2.78,-33.641 l -30.84,-3.359 c -12.88,-3.926 -28.06,-10.078 -33.66,-22.43 -2.75,3.926 2.24,13.465 -6.14,13.465 -2.26,0 -5.04,-1.113 -6.18,-3.926 0.53,-2.266 2.2,-5.07 1.14,-7.297 -6.74,-2.242 -9.57,-8.406 -5.6,-14.031 -1.14,-1.121 -3.36,-0.547 -4.5,-0.547 -5.6,3.906 -3.4,11.777 -9.53,15.137 -2.25,4.472 3.93,7.285 0,10.664 -2.83,2.234 -7.86,2.234 -10.11,0 -3.35,-6.192 1.68,-15.149 -8.42,-16.817 l 2.25,-10.117 c -7.28,-3.351 -7.86,5.625 -10.11,8.985 -1.1,5.605 -7.85,8.953 -2.78,14.57 1.68,2.793 -2.25,5.059 -4.5,5.059 -3.39,0.554 -5.6,-1.68 -6.74,-3.926 3.96,-6.75 -3.94,-9.571 -8.4,-11.219 l 1.11,-13.469 c -5.6,0 -7.28,6.153 -8.96,10.117 1.11,5.594 -6.18,4.473 -6.74,9.54 3.92,12.316 5.07,29.152 20.2,32.5 z M 2066.73,637.914 c 24.13,9.551 49.37,15.715 72.32,28.613 -24.05,12.325 -49.86,21.278 -72.32,37.578 77.4,-6.191 160.44,-10.675 241.72,-6.75 0.58,-17.937 -6.7,-34.773 -4.99,-51.003 8.96,-11.231 22.38,-10.106 34.16,-13.508 -89.18,-7.274 -183.92,-4.481 -270.89,5.07 z m 322.51,0.535 c -24.66,0.598 -51.62,1.723 -74.04,9.555 l -2.78,3.355 c 21.32,10.696 53.26,8.977 77.36,3.946 z m 198.53,-7.281 -191.25,34.227 c -26.34,5.019 -57.22,2.812 -82.42,-0.54 4.45,16.79 6.13,35.852 4.45,53.282 2.83,9.511 14.04,8.957 21.32,13.437 31.38,7.844 64.47,0 95.35,-3.398 77.97,-14.559 154.26,-31.942 235.55,-36.981 2.82,-17.98 -1.67,-37.043 -1.15,-54.402 5.65,-8.977 15.71,-8.43 24.14,-10.656 -35.3,-2.246 -71.79,0.547 -105.99,5.031 z m 171.64,0 c -24.7,-1.672 -51.05,-0.539 -72.93,6.746 19.59,11.231 44.87,12.313 68.4,12.91 l 5.6,-0.597 c -1.63,-6.161 0,-12.86 -1.07,-19.059 z m 14.57,29.168 c -33.67,3.379 -65.04,-1.68 -94.25,-11.777 2.82,19.101 3.4,40.371 2.29,59.472 16.24,20.742 44.3,18.477 69.5,20.145 44.88,1.719 82.39,-7.567 126.2,-16.238 9,-25.809 38.12,-43.192 48.23,-68.418 -51.58,-4.473 -99.81,14.031 -151.97,16.816 z m 123.91,51.602 c -5.03,7.878 -2.79,19.042 0.61,26.347 5,8.477 13.42,16.301 22.99,17.977 13.42,2.804 25.2,-2.821 35.35,-10.653 14.52,-14.629 23.52,-34.812 35.87,-51.601 -14.07,5.019 -34.2,2.793 -46.02,-9.551 -3.88,-6.699 -7.82,-12.91 -8.96,-20.742 -10.63,16.25 -25.23,32.519 -39.84,48.223 z m 103.78,-67.266 c -0.57,8.359 -3.35,16.23 -11.74,20.183 -4.54,1.672 -11.29,2.805 -15.18,-0.593 -7.28,-3.926 -6.75,-11.758 -5.6,-17.91 1.68,-2.832 3.93,-6.18 7.85,-5.079 7.29,4.473 -5.64,12.879 5.03,15.704 5.04,0.574 7.9,-5.618 9.58,-8.973 0.52,-8.41 -2.86,-15.715 -10.15,-19.641 -7.81,-1.086 -15.66,-2.793 -22.42,1.68 -7.28,5.605 -12.88,13.477 -13.45,22.988 -1.11,12.91 7.32,25.266 19.06,30.879 25.81,12.324 44.34,-10.695 62.79,-26.933 -9.49,-1.141 -19.59,-3.348 -25.77,-12.305"/><path id="path22" style="fill:#5e6776;fill-opacity:1;fill-rule:nonzero;stroke:none" d="m 2619.8,678.336 -0.04,6.121 -30.6,5.059 v -7.278 l 2.94,-0.468 0.17,-27.02 c -2.25,-4.523 -7.57,-4.523 -12.89,-4.523 -11.53,0 -7.31,41.527 -7.31,41.527 l -27.46,3.922 -0.04,-6.629 c 0,0 3.43,-0.996 5.07,-1.797 1.07,-14.035 -3.35,-30.273 9.53,-39.246 8.96,-5.609 22.74,-8.488 34.41,-2.688 0.49,0 3.8,-4.003 3.8,-4.003 l 21.23,-2.864 0.16,6.867 -4.04,1.036 0.21,32.5 4.86,-0.516"/><path id="path24" style="fill:#5e6776;fill-opacity:1;fill-rule:nonzero;stroke:none" d="m 2521.18,664.516 c -4.92,-1.418 -16.45,0.254 -16.45,0.254 l 0.04,14.082 c 0,0 4.99,-0.762 6.58,-2.559 2.46,-2.773 4.34,-6.426 9.12,-4.746 -0.69,0 0.21,15.793 -0.2,16.055 -1.68,1.082 -6.01,0.8 -6.54,-2.032 -2.78,-1.66 -9.5,0 -9.5,0 v 12.188 c 0,0 16.33,0.351 21.36,-6.758 2.25,-3.145 3.39,-9.23 3.39,-9.23 l 7.78,-0.497 -2.25,17.207 -56.49,10.469 v -6.308 l 6.01,-1.934 -0.21,-32.559 -6.3,0.977 v -6.777 l 54.74,-10.391 6.13,16.789 -7.28,2.801 c -2.46,-3.731 -5.97,-5.899 -9.93,-7.031"/><path id="path26" style="fill:#5e6776;fill-opacity:1;fill-rule:nonzero;stroke:none" d="m 2798.65,716.703 -0.2,-19.426 3.63,0.286 c 0,0 3.36,5.703 6.79,7.507 2.09,1.086 9.49,0 9.49,0 v -33.015 l -6.79,0.078 v -5.606 l 31.95,-5.625 0.13,4.442 -5.73,3.402 -0.12,33.094 c 0,0 6.13,-0.918 7.81,-3.008 2.7,-3.437 6.75,-10.703 6.75,-10.703 l 5.32,-0.078 -0.13,18.945 -58.9,9.707"/><path id="path28" style="fill:#5e6776;fill-opacity:1;fill-rule:nonzero;stroke:none" d="m 2777.87,680.531 c -7.57,-4.57 -18.46,-0.566 -18.46,-0.566 l 0.21,11.035 c 0,0 10.18,1.914 10.18,-2.949 l 4.75,-0.246 0.12,14.386 -4.95,0.028 c 0,0 -2.37,-6.375 -11.08,-4.942 v 13.106 c 5.03,2.277 10.47,2.883 15.91,-0.125 4.34,-2.422 7.9,-10.059 7.9,-10.059 l 5.52,-0.039 -3.36,17.383 -54.4,0.129 v -7.414 l 6.22,-1.113 v -31.387 l -5.65,-2.266 0.21,-5.234 54.2,-0.391 4.46,14.043 -7.36,1.016 c 0,0 -2.29,-3.156 -4.42,-4.395"/><path id="path30" style="fill:#5e6776;fill-opacity:1;fill-rule:nonzero;stroke:none" d="m 2434.33,711.391 6.5,-3.36 -0.2,-32.07 c -1.68,-1.145 -6.55,0.449 -6.55,0.449 l -0.74,-5.82 c 0,0 34.04,-6.777 34.04,-6.328 v 6.328 l -5.24,1.543 v 33.387 l 6.18,0.265 v 5.012 l -33.99,6.422 v -5.828"/><path id="path32" style="fill:#5e6776;fill-opacity:1;fill-rule:nonzero;stroke:none" d="m 2874.94,775.297 -3.92,7.891 -84.15,15.136 3.39,-5.039 c 27.45,-7.285 56.08,-14.629 84.68,-17.988"/><path id="path34" style="fill:#5e6776;fill-opacity:1;fill-rule:nonzero;stroke:none" d="m 2876.04,757.914 5.08,6.758 c -38.17,6.152 -76.29,12.91 -113.32,21.328 l 3.4,-4.492 c 34.15,-10.125 68.93,-19.102 104.84,-23.594"/><path id="path36" style="fill:#5e6776;fill-opacity:1;fill-rule:nonzero;stroke:none" d="m 2868.72,793.285 c -0.53,2.754 0.62,7.285 -2.74,8.367 -20.78,2.864 -43.24,5.071 -62.3,7.871 l 2.82,-3.378 c 20.17,-5.575 41.52,-10.653 62.22,-12.86"/><path id="path38" style="fill:#5e6776;fill-opacity:1;fill-rule:nonzero;stroke:none" d="m 3098.41,1046.34 -3.63,-1.27 c 10.1,-8.96 0,-23.52 11.78,-31.41 41.52,-12.89 94.78,-10.65 136.3,0.58 15.13,6.16 0.66,24.43 11.91,33.39 -48.89,17.81 -108.7,17.22 -156.36,-1.29 z m 143.71,-24.3 c -40.12,-10.67 -91.87,-10.96 -131.71,-0.29 l 0.07,11.96 c 36.5,15.22 94.75,14.88 131.64,1.95 v -13.62"/><path id="path40" style="fill:#5e6776;fill-opacity:1;fill-rule:nonzero;stroke:none" d="m 3062.83,1103.61 -2.29,-2.43 c 15.17,-13.46 23.6,-30.3 30.88,-47.13 50.49,18.51 118.34,20.19 167.69,1.12 4.49,10.11 7.27,20.19 14.02,29.15 3.89,6.75 15.13,18.51 15.13,18.51 l -3.05,2.39 c 0,0 4.39,3.83 4.75,7.19 0.67,6.76 2.24,13.43 -2.28,17.38 -5.59,3.34 -12.86,2.8 -17.95,1.12 0,4.48 -1.09,8.96 -4.45,12.32 -5.65,6.15 -14.6,1.13 -19.67,-0.55 0,5.03 -2.22,8.43 -6.14,11.78 -5.61,2.8 -12.89,0.53 -17.39,-3.35 -2.21,3.35 -3.35,7.82 -7.28,10.63 -5.61,4.47 -14.02,0.59 -17.92,-2.25 l -3.51,10.92 -6.26,14.75 -2.25,14.58 19.83,-4.86 v 27.44 l -19.83,-5.11 3.88,28.11 -30.1,0.03 3.88,-28.14 -21.35,5.11 v -27.44 l 21.35,4.86 -2.41,-16.18 -5.28,-14.08 -2.82,-11.09 c -3.93,2.82 -7.89,5.03 -13.5,4.47 -6.72,0 -8.96,-7.28 -11.21,-11.75 -3.93,3.35 -8.97,5.6 -14.61,4.47 -6.71,-1.71 -8.95,-8.99 -11.17,-14.03 l -3.92,2.81 c -6.18,1.14 -14.03,1.14 -16.81,-5.61 -3.4,-2.27 2.21,-12.36 -4.54,-9.56 -6.14,3.4 -14.04,0.6 -17.39,-5.02 -5.36,-7.17 -1.51,-17.31 3.97,-20.56 z m 203.01,4.85 -3.3,-11.32 c -4.18,3.24 -5.68,4.57 -8.52,7.37 l -10.09,-19.04 c 3.07,-0.59 7.65,-0.8 9.85,-4.2 -4.49,-7.75 -11.66,-12.27 -19.39,-9.04 -9.69,4.01 -8.43,11.33 -6.84,19.43 5.82,0 8.15,-1.3 10.08,-4.23 2.94,2.93 9.37,8.75 6.45,16.51 -1.51,4.01 -9.28,5.03 -12.64,3.88 4.26,6.79 5.2,14.88 -2.85,19.74 12.3,-3.95 26.05,-11.23 37.25,-19.1 z m -38.29,19.77 c -12.3,-0.34 -13.61,-9.71 -11.64,-17.5 -2.79,1.71 -8.77,5.81 -13.42,2.2 -6.38,-4.84 -4.66,-14.15 -2.46,-20.3 3.57,3.55 8.79,3.31 13.3,1.59 -0.98,-7.42 -4.17,-14.87 -16.17,-15.21 -13.89,-0.37 -13.83,12.1 -13.28,14.9 3.34,0.55 5.48,-0.32 9.73,-1.63 -2.29,7.46 -1.96,16.85 0.32,23.97 h -9.73 l 2.61,12.6 h -25.89 l 2.26,-12.93 c -4.09,-0.1 -6.96,0.12 -10.08,0 3.95,-7.75 5.65,-17.22 2.27,-23.17 3.92,0.51 6.81,-0.12 9.72,1.16 1.16,-4.48 -1.26,-15.19 -11.61,-16.2 -9.73,-0.88 -15.26,4.57 -16.12,13.92 4.14,1.96 6.39,1.96 10.55,0.32 1.19,1 3.77,4.11 3.28,7.12 -0.9,5.7 -0.66,11.27 -6.51,13.34 -4.5,1.57 -10.31,-2.31 -10.31,-2.31 0,0 0.87,7.91 -0.68,11.35 -1.49,3.3 -5.82,6.44 -10.36,6.78 29.77,10 72.86,12.94 104.22,0 z m -104.83,0 c -7.45,-4.23 -7.04,-7.46 -7.45,-10.39 -0.57,-3.82 4.86,-10.34 4.86,-10.34 0,0 -7.77,2 -10.21,-0.17 -5.69,-4.99 -3.85,-9.1 -3.36,-15.13 0.24,-3.48 2.77,-5.06 5.08,-7.29 3.3,3.2 4.9,4.16 12.38,4.49 2.22,-7.33 -0.94,-16.25 -10.06,-19.11 -10.35,-3.25 -14.52,1.94 -18.04,9.02 2.78,2.21 3.81,2.64 9.94,3.6 l -9.4,19.92 -10.64,-8.92 -3.56,5.83 -1.31,6.44 c 10.64,7.89 29.42,18.7 41.77,22.05"/><path id="path42" style="fill:#5e6776;fill-opacity:1;fill-rule:nonzero;stroke:none" d="m 3127.87,1021.55 18.49,-2.74 3.4,2.19 c 17.96,2.21 35.66,2.64 54.2,0.41 l 2.25,-2.93 16.85,3.27 c -28.06,8.96 -66.72,9.05 -95.19,-0.2"/><path id="path44" style="fill:#5e6776;fill-opacity:1;fill-rule:nonzero;stroke:none" d="m 2611.86,735.52 c 19.68,-1.719 41,2.765 61.16,3.898 14.61,6.738 13.99,28.055 10.64,41.504 -1.64,0 -3.32,-1.133 -4.46,-1.66 -3.36,-10.684 1.67,-25.821 -9.58,-31.973 l -56.61,-6.738 -1.15,-5.031"/><path id="path46" style="fill:#5e6776;fill-opacity:1;fill-rule:nonzero;stroke:none" d="m 2868.72,741.684 c 2.3,2.207 1.68,5.605 2.82,7.832 -35.3,5.605 -70.65,10.672 -104.31,19.629 0,-1.672 1.14,-3.387 2.82,-4.473 31.42,-10.684 65.05,-17.383 98.67,-22.988"/><path id="path48" style="fill:#5e6776;fill-opacity:1;fill-rule:nonzero;stroke:none" d="m 3615.07,675.961 c 0,0 13.44,-0.43 16.99,0 v 5.312 h -4.38 v 22.325 l 28.5,-31.465 7.9,-0.078 v 41.258 h 3.89 v 6.339 l -15.51,0.45 v -5.832 h 4.29 l 0.05,-12.598 -20.27,19.23 -27.45,0.586 0.67,-6.25 h 9.72 l 0.27,-33 -4.17,-0.468 -0.5,-5.809"/><path id="path50" style="fill:#5e6776;fill-opacity:1;fill-rule:nonzero;stroke:none" d="m 3577.68,722.016 c -8.99,-1.114 -17.98,-2.2 -24.12,-9.504 -6.17,-5.606 -8.42,-14.032 -6.17,-22.442 1.67,-7.293 7.26,-12.312 13.45,-16.257 10.1,-3.399 22.98,-2.793 31.95,1.679 12.34,6.153 15.71,20.742 11.24,32.539 -5.6,10.106 -15.7,14.59 -26.35,13.985 z m 1.68,-44.844 c -6.55,-1.211 -10.42,5.555 -11.37,16.258 -1.02,11.289 -6.02,22.648 6.29,23.566 9.22,0.676 9.03,-9.844 10.25,-18.242 1.42,-10.195 1.94,-20.215 -5.17,-21.582"/><path id="path52" style="fill:#5e6776;fill-opacity:1;fill-rule:nonzero;stroke:none" d="m 3715.63,748.363 c -2.77,0 -5.6,0 -6.17,-2.754 2.2,-9.004 -2.23,-22.988 6.17,-29.746 23,-3.925 45.45,-9.55 65.61,-20.73 1.68,-1.125 7.34,-2.856 6.76,1.668 -17.96,13.996 -39.86,21.875 -62.26,25.82 -11.79,3.359 -2.82,19.063 -10.11,25.742"/><path id="path54" style="fill:#5e6776;fill-opacity:1;fill-rule:nonzero;stroke:none" d="m 4263.58,681.098 c 34.78,19.062 69.55,40.39 100.98,66.191 -70.14,-10.09 -138,-17.394 -212.03,-16.836 -5.62,1.68 -1.15,10.637 -4.52,14.578 -19.58,28.598 -63.88,20.188 -96.45,19.043 -22.46,2.278 -49.34,-23.523 -65.04,3.946 -10.1,8.957 -24.66,7.277 -38.12,8.429 -24.15,-5.625 -45.98,-20.187 -70.13,-24.133 7.29,16.262 1.15,35.364 0,52.727 0.57,3.906 1.15,8.426 5.06,10.105 8.98,-16.257 25.79,-24.668 42.59,-23.582 0.58,6.192 -8.94,10.684 -10.09,16.836 15.19,-6.75 35.92,-0.527 50.48,-8.406 -0.52,12.352 -16.81,22.984 -23.53,31.414 13.47,0 24.68,-0.558 35.84,-2.265 -3.89,14.023 -15.08,28.066 -24.62,37.011 l 25.82,-0.527 c 7.84,1.125 17.38,0 24.66,1.125 -5.08,13.465 -19.11,25.223 -31.43,30.828 l 24.68,3.348 c 7.31,3.351 18.53,-0.528 25.22,3.351 -10.61,15.164 -26.94,23.594 -42.03,31.465 l 37.01,10.059 c 5.02,0 12.37,-1.106 15.14,1.133 -10.66,14.578 -26.92,21.308 -42.09,26.933 v 1.133 c 8.42,1.668 14.59,8.945 21.94,13.457 5.01,3.332 12.84,2.793 16.18,7.801 -13.41,12.378 -31.9,14.588 -49.28,19.078 v 1.71 c 11.16,6.7 20.16,17.39 31.38,24.09 v 2.26 c -17.39,11.23 -40.92,11.23 -62.27,10.65 5.65,6.73 8.99,14.03 10.64,21.9 2.85,7.29 8.99,13.45 11.81,19.6 -18.53,3.36 -37.02,-1.68 -53.3,-8.41 l 9.54,38.15 -1.7,1.1 c -18.47,-0.55 -35.87,-10.06 -50.99,-20.16 -1.16,12.86 3.91,23.56 6.16,33.64 -15.14,-1.12 -28.1,-6.74 -40.94,-13.48 -16.85,-8.98 -34.76,-24.09 -32.57,-44.87 -1.09,-1.09 -4.44,-0.54 -3.86,-3.36 6.12,-4.48 7.84,-12.88 9.51,-19.06 -5.07,3.36 -9.04,8.98 -10.09,14.58 -3.95,6.75 -11.79,12.91 -20.22,8.98 3.36,-3.94 7.86,-11.19 7.86,-17.38 -10.07,5.05 -9.54,16.24 -17.39,22.99 -3.91,2.25 -10.06,3.93 -13.98,1.13 l 7.26,-12.36 -1.15,-1.68 c -10.66,5.07 -8.93,16.84 -18.47,22.46 -3.35,2.81 -11.24,2.81 -14.04,0 2.8,-5.07 8.44,-10.1 7.86,-15.71 -12.89,5.03 -16.8,32.5 -34.76,22.99 3.92,-3.92 8.94,-7.87 8.94,-12.9 -11.22,2.82 -11.73,15.13 -20.15,20.73 -4.5,1.68 -10.12,3.95 -13.52,1.14 3.4,-3.34 6.22,-7.29 5.62,-11.24 -7.82,1.14 -7.29,9.58 -13.43,13.5 -3.35,5.57 -10.1,8.39 -16.82,6.16 1.68,-3.4 5.63,-7.28 5.05,-10.63 -7.29,3.35 -6.72,14.53 -16.29,16.25 -3.34,-0.59 -6.72,-3.94 -5.61,-8.42 2.27,-3.95 5.61,-7.28 9.54,-8.96 16.81,2.76 24.7,-16.31 42.08,-12.35 7.29,-7.86 16.26,-11.79 27.45,-11.24 7.34,-6.16 15.71,-10.65 26.41,-9.51 7.84,-13.5 25.8,-1.14 33.61,-15.71 6.19,-5.62 20.2,1.13 21.9,-8.42 h -1.7 c -20.73,10.63 -35.86,-6.75 -51.57,-16.24 -19.11,-8.43 -43.79,-7.3 -58.35,-24.13 -2.82,-17.396 -11.24,-38.126 -1.12,-54.962 2.25,-1.68 7.32,-2.277 5.07,-6.758 l 19.06,-20.742 c 6.14,-5.051 15.7,-3.352 23.53,-2.793 19.65,14.582 48.25,22.414 71.77,10.098 -1.67,-7.871 -3.86,-17.383 -13.41,-20.207 -3.39,-2.254 -1.72,-10.086 -8.44,-7.274 -6.19,0 -8.41,-6.758 -8.41,-11.769 l 6.16,-2.274 c 2.25,-2.793 2.25,-5.605 0,-7.832 -3.34,-3.926 -8.98,-3.926 -13.44,-2.804 -5.04,2.218 -9.59,7.843 -7.28,14.035 2.76,0.554 4.46,-3.946 7.28,-2.266 -0.56,6.699 3.35,11.231 3.35,16.816 l -7.87,1.114 c 0,3.933 5.08,7.285 3.96,11.23 -5.63,2.246 -13.47,1.68 -19.66,0.574 l -2.2,-12.918 -15.71,-1.679 c -2.87,2.246 -1.67,7.277 -6.17,8.398 l -37.59,-7.832 c -6.77,-0.566 -15.68,-5.605 -11.21,-14.023 -7.33,-6.164 -15.71,-26.946 -27.5,-14.043 -9.54,-10.625 -16.29,-25.215 -25.23,-36.973 -4.47,-5.078 -1.7,-13.496 4.5,-15.176 0,-6.164 -2.83,-11.757 -5.62,-16.836 -4.5,0.586 -8.94,0 -11.19,-3.886 l -3.4,-46.59 c 1.68,-5.012 7.33,-3.899 10.62,-6.164 -0.53,-2.207 1.15,-5.606 -1.05,-7.278 -48.81,1.125 -91.46,-14.031 -138,-15.117 -3.96,10.637 -8.41,22.395 -18.52,30.274 13.5,12.902 17.43,30.285 20.22,47.675 15.69,-1.121 28.58,3.891 38.69,16.836 31.95,-1.132 67.26,-4.519 98.66,2.766 l -1.67,1.672 c -5.55,5.078 1.14,9.547 1.67,14.031 -30.79,-2.805 -63.31,-2.805 -94.21,0 3.97,29.172 -24.65,44.871 -40.89,63.945 3.35,3.368 7.27,5.598 11.16,7.872 39.84,3.347 72.41,-19.661 113.32,-14.59 24.13,3.359 51.63,19.636 57.75,45.41 5.04,20.781 4.5,45.996 -10.07,62.25 -26.32,30.29 -72.36,27.52 -107.65,18.52 -16.86,-2.23 -41.53,-15.14 -54.41,3.4 -5.6,7.81 -2.83,20.19 -0.61,28.02 -7.81,1.13 -12.31,-6.18 -17.4,-10.11 -12.32,-16.26 -8.95,-40.37 -2.73,-57.229 -12.36,3.959 -19.11,16.859 -23.02,27.529 h -1.13 c -6.74,-12.34 -2.82,-29.208 1.7,-41.521 6.16,-14.023 22.45,-22.988 33.62,-27.461 -10.07,-2.273 -18.49,-9.55 -26.35,-14.031 -4.45,2.801 -7.27,9.547 -11.79,14.031 -3.92,6.153 -17.41,3.887 -14.01,11.758 8.42,25.809 -16.26,40.924 -32.55,56.644 -2.97,21.78 -16.06,50.14 -43.14,57.22 -21.25,5.53 -40.63,3.01 -54.41,-14.03 -9.17,-11.31 -11.8,-22.45 -10.1,-35.9 -11.21,3.93 -21.32,12.36 -33.09,13.45 -2.25,-4.49 -2.46,-10.2 -0.75,-15.8 17.13,-5.82 32.65,-15.55 45.29,-24.59 h 29.79 c 6.29,0.89 11.56,2.48 15.99,7.89 5.12,6.35 6.83,13.31 3.34,20.73 -3.22,6.85 -6.42,10.68 -16.31,10.68 -8.52,0 -10.06,-6.29 -10.06,-12.36 0,-5.27 2.57,-6.16 5.65,-5.61 3.06,0.58 1.39,4.82 3.34,7.29 1.28,1.62 2.62,3.72 4.47,2.8 3.35,-1.68 4.74,-4.2 5.64,-7.83 1.56,-6.79 -3.27,-12.11 -9.56,-15.17 -7.5,-3.61 -14.69,-0.66 -20.76,5.06 -7.57,7.12 -7.04,16.44 -3.92,26.35 3.02,9.59 8.17,15.05 17.39,19.06 12.38,5.44 23.27,2.39 34.24,-5.6 15.08,-11.07 21.03,-29.91 12.31,-46.55 -6.74,-12.847 -18.49,-20.187 -31.99,-19.046 v -25.215 c 40.38,-48.274 50.72,-94.219 50.72,-135.656 0,-95.762 -63.11,-194.864 -184.17,-214.247 l -15.55,-16.836 c 43.26,1.68 82.24,17.461 117.05,39.735 37.02,14.59 50.48,-39.852 87.49,-29.149 10.64,2.215 20.21,12.325 26.93,21.875 20.73,-3.398 43.15,-5.625 65.61,-3.398 38.67,1.719 74.06,15.156 111.6,14.023 0.54,-7.82 -1.16,-17.382 4.49,-22.976 45.98,-11.195 100.4,-12.336 149.21,-6.719 11.75,-3.391 26.33,-7.348 37.58,0.555 25.73,4.48 49.33,-4.504 74.58,-5.031 12.34,-2.872 20.74,3.886 26.9,11.195 53.28,13.433 106.01,28.59 160.98,36.461 7.29,-0.574 2.79,-12.352 5.04,-17.957 6.15,-10.098 19.06,-8.965 29.17,-11.778 98.13,-8.964 200.18,0.547 294.45,15.704 -40.94,11.785 -83,21.335 -121.71,37.578 z m -311.31,76.289 c 8.97,0 18.01,0 24.15,-6.203 -34.21,-10.094 -69.55,-18.485 -106.04,-24.09 26.97,6.164 53.87,21.269 81.89,30.293 z m -74.58,88.054 c -2.25,1.086 -5.02,1.086 -6.69,3.93 -0.62,3.348 1.1,6.707 3.93,7.84 2.76,0.547 6.16,0 6.16,-3.359 1.12,-3.399 -1.67,-6.204 -3.4,-8.411 z m 22.43,-5.066 c -1.67,3.926 -0.53,9.543 3.4,10.078 12.89,-3.926 17.38,-20.195 28.03,-28.027 -12.32,-1.113 -25.78,6.719 -31.43,17.949 z m 15.19,28.055 c -1.15,3.886 -3.37,8.957 -0.58,13.441 2.77,0.555 4.5,0.555 7.33,0 l 27.44,-35.344 c -13.46,1.719 -25.77,10.684 -34.19,21.903 z m 10.61,30.293 c -1.09,1.679 0,4.484 -0.52,6.691 2.75,2.82 8.39,2.266 11.79,0.586 l 35.86,-26.934 c -19.05,-1.679 -34.81,5.625 -47.13,19.657 z m 63.94,16.789 c -21.88,-6.153 -45.4,-0.547 -58.84,17.39 -0.58,3.391 2.2,5.606 5.02,6.203 20.78,-2.273 35.92,-16.835 53.82,-23.593 z m 9.02,38.703 c -20.78,-5.598 -51.63,-8.41 -66.77,8.426 -0.56,3.925 3.4,5.605 6.13,7.285 21.92,-1.133 41.58,-7.285 60.64,-15.711 z m -2.87,40.965 c -17.39,-12.344 -45.41,-9.551 -67.26,-7.285 -4.5,1.679 -3.35,6.718 0,9.523 20.75,13.432 45.98,1.121 67.26,-2.238 z m -13.99,43.2 c -17.9,-16.31 -44.31,-18.51 -66.71,-23.58 -3.37,1.68 -1.7,6.75 -1.15,9.55 16.86,16.79 43.76,12.31 67.86,14.03 z m -35.86,42.6 c -4.52,-25.21 -33.65,-26.93 -46.04,-46 -5.02,0 -4.47,5.61 -6.14,8.42 4.47,25.22 33.1,29.16 52.18,37.58 z m -39.29,26.92 c 0,-21.31 -22.98,-33.09 -29.18,-52.13 -4.44,1.08 -5.02,6.69 -6.69,10.08 -2.82,22.42 20.16,33.06 35.87,42.05 z m -79.08,-12.88 c 8.45,10.63 20.76,19.59 31.95,24.07 0,-20.71 -16.82,-35.85 -33.09,-46.53 -5.55,6.16 -1.11,15.71 1.14,22.46 z m -26.9,-205.856 c 4.5,-2.266 9.52,-1.133 10.67,3.934 -2.3,16.859 12.89,30.293 16.23,46.554 12.36,0 23.53,8.399 29.18,19.59 2.24,7.324 4.49,17.43 0.57,24.707 -1.68,1.68 -4.55,4.512 -6.22,1.153 -1.65,-9.551 -5.57,-21.914 -16.78,-24.727 -17.39,-6.16 -37.02,0 -54.4,2.813 -16.29,-3.946 -34.2,-3.348 -46,-17.383 -4.48,-3.946 -12.37,-2.227 -16.84,1.133 -2.77,2.246 -6.17,6.738 -1.67,8.953 5.62,3.949 15.7,-0.536 20.18,6.75 1.15,6.152 -3.37,11.23 -8.97,13.437 -11.21,6.758 -28.03,-19.043 -27.5,4.52 l 2.25,15.664 c 5.07,-3.328 12.94,-5.594 18.5,-3.328 3.4,1.121 6.75,5.007 5.07,8.406 -5.07,9.51 -11.79,-0.57 -18.5,0 1.12,7.3 10.64,7.83 16.26,10.64 21.83,3.36 42.6,10.69 58.32,28.61 14.6,4.48 31.39,-7.28 44.88,2.81 5.05,11.77 14.56,23.01 26.87,29.16 1.72,-14.03 8.47,-31.97 -3.32,-43.73 1.65,-3.36 6.19,-3.94 10.07,-2.26 3.97,2.26 3.97,6.74 5.65,10.69 39.28,-23.6 53.27,-66.787 45.97,-111.065 -5.59,-20.781 -11.24,-41.504 -22.4,-60.039 -0.58,0 -3.93,6.16 -7.87,5.625 1.65,3.926 2.24,11.766 -2.25,15.117 -8.46,0 -11.19,-12.304 -20.78,-8.359 -2.77,-2.832 -4.44,-5.625 -4.44,-9.023 1.67,-2.207 4.44,-1.086 6.12,-3.887 0.57,-5.07 -3.88,-7.871 -7.79,-8.984 -6.2,-0.567 -12.37,2.832 -14.04,8.984 -0.63,2.801 -1.67,7.832 0.57,9.512 3.87,-1.141 10.65,-8.985 11.77,0 0,5.605 10.63,11.757 1.7,15.703 l -6.77,1.679 c 1.14,3.379 5.62,5.059 5.07,9.532 -6.22,3.359 -11.77,6.758 -19.08,7.304 -2.81,-2.265 -1.7,-5.625 -1.7,-8.957 -3.93,-1.679 -5.6,4.477 -9.57,3.332 -2.75,-5.605 -4.99,-12.351 -6.67,-18.515 l 10.07,-3.348 c -3.92,-5.598 -10.67,-9.555 -16.81,-7.871 -3.35,2.273 -8.4,3.941 -9.54,8.426 -1.11,2.793 1.14,6.191 3.94,6.738 z m -83.59,17.391 c 3.4,-1.141 2.25,-6.707 3.4,-10.106 -8.42,-4.472 -17.99,-5.066 -27.48,-7.285 -1.7,3.359 -2.25,7.844 -1.7,11.238 z m -77.4,-60.028 c 5.61,6.746 7.87,15.157 13.46,21.903 l 9.02,-5.606 c -3.95,-8.972 -8.47,-16.855 -14.05,-24.676 -2.82,2.227 -12.36,3.352 -8.43,8.379 z m -15.69,-44.277 11.24,-0.598 -2.3,-28.554 -11.16,1.086 z m -130.7,75.137 c 5.65,-4.473 10.71,-11.231 12.91,-18.504 1.1,-8.965 -2.2,-16.262 -8.39,-21.867 -4.52,-5.606 -12.33,-6.164 -19.63,-4.485 -4.49,1.086 -8.41,6.75 -10.08,11.231 -0.58,4.484 1.67,8.957 5.59,10.09 10.64,2.793 1.67,-16.836 12.88,-9.004 2.25,3.945 1.11,10.078 -1.67,14.035 -3.92,3.941 -11.21,6.148 -16.8,3.347 -17.96,-12.312 -1.7,-34.171 -5.63,-52.707 -1.14,-13.484 -7.27,-24.668 -17.98,-34.226 -6.09,2.285 -14.56,2.285 -20.7,0 18.48,20.195 16.81,51.086 15.7,77.976 1.11,9.551 7.27,17.961 14.56,24.114 12.35,6.16 26.93,6.16 39.24,0 z m -35.31,110.508 v 1.679 c 46.02,-35.359 96.45,5.606 145.83,1.094 11.22,-3.359 20.73,-14.59 16.79,-27.48 -1.7,6.738 -8.92,13.484 -16.22,15.164 -49.37,6.152 -110.48,-43.739 -146.4,9.543 z m 154.25,-28.055 c 0.54,-5.07 -5.65,-10.11 -10.09,-10.656 -24.13,-3.379 -47.13,3.906 -70.11,8.984 24.07,5.02 48.17,15.105 73.46,10.078 3.91,-1.133 5.61,-5.058 6.74,-8.406 z m 6.14,-13.461 c 10.69,8.976 16.86,20.734 14.04,34.219 1.14,11.195 -11.22,18.488 -17.38,24.642 -39.27,15.76 -76.31,-13.986 -116.67,-7.299 -8.39,3.959 -15.14,12.909 -15.14,22.459 v 1.67 c 5.08,-8.41 13.47,-14.57 23.56,-14.57 43.73,2.82 105.45,38.72 137.42,-8.961 6.11,-10.644 7.26,-26.348 3.35,-38.699 -2.82,-11.789 -13.47,-22.453 -23.56,-28.606 -52.7,-25.82 -103.23,35.332 -152.55,-3.359 l -6.74,5.605 c 43.76,47.676 102.1,-12.89 153.67,12.899 z m -233.32,3.351 c -16.24,5.625 -21.44,18.274 -34.37,34.454 12.88,1.718 25.97,10.996 31.57,23.906 0,2.23 1.72,3.36 1.72,5.57 14.56,-14.574 44.81,-32.504 25.2,-56.051 -6.74,-5.605 -14.56,-11.23 -24.12,-7.879 z m 7.01,-32.882 c -0.52,8.429 1.92,18.976 10.37,25.609 7.44,5.789 15.19,8.953 23.6,5.027 l 54.95,-56.64 c -16.28,3.926 -31.97,-1.094 -43.16,-15.137 -19.68,-24.707 3.92,-64.5 -17.38,-89.168 l -19.69,-19.066 c 15.17,48.234 10.1,106.652 -8.69,149.375 z m 14.86,-278.399 c -6.17,-7.281 -15.13,-10.086 -24.67,-8.406 -7.27,2.246 -11.24,8.406 -13.99,14.629 -1.15,5.555 0.55,11.164 5.63,13.437 3.34,0.547 7.26,-0.558 7.84,-3.957 1.09,-3.925 -5.65,-8.406 0.52,-10.632 3.94,-0.567 7.34,3.945 7.87,7.304 1.15,7.285 -2.8,14.031 -9.54,16.836 -5.6,1.68 -12.32,0.547 -16.86,-3.945 -5.55,-3.938 -5.03,-10.684 -5.55,-16.25 -8.44,7.285 -18.53,10.644 -28.6,10.644 18.49,16.262 37.02,35.899 63.37,29.696 8.96,-3.895 19.05,-13.434 19.58,-23.543 0.62,-9.512 -0.53,-18.516 -5.6,-25.813 z m 16.29,28.078 c -2.77,9.512 -11.78,23.543 -23.58,29.149 -10.62,5.031 -25.23,3.351 -34.72,-1.121 18.46,25.8 32.52,75.144 75.69,63.359 10.11,-3.328 19.05,-14.023 20.2,-24.113 6.14,-30.281 -31.43,-42.606 -37.59,-67.274 z m 12.91,-15.168 c 6.72,14.036 19.66,28.059 31.4,40.918 1.43,-0.996 4.57,-4.675 4.57,-4.675 v -21.875 l -4.22,-0.508 -0.35,-5.442 16.73,0.129 0.08,4.949 -4.43,0.872 -0.05,13.125 16.84,-17.95 16.23,24.258 2.4,-15.535 c 0,0 -2.95,-1.086 -5.19,-1.418 -0.53,-2.812 0.32,-6.375 0.32,-6.375 l 30.62,5.359 -1,8.262 c 0,0 -4,-1.082 -5.27,-1.082 l -4.42,29.734 5.37,1.415 -0.95,8.097 -19.6,-3.359 -12.34,-25.215 -20.54,21.953 -5.29,-0.09 3.4,8.43 c 61.11,6.68 125.62,28.027 188.96,10.078 5.42,-2.324 8.68,-5.762 10.52,-9.871 6.12,-13.828 -3.19,-35.617 2.4,-50.688 0.58,-2.8 1.67,-5.078 1.1,-8.425 -83.52,29.699 -162.65,-19.637 -247.29,-5.071 z m 177.81,-15.113 -2.25,17.906 c 24.63,1.684 49.33,-1.121 70.63,-10.632 l -0.57,-2.247 c -20.73,-6.75 -44.84,-6.75 -67.81,-5.027 z m 68.38,-5.078 c 3.92,2.801 10.69,5.078 12.94,10.672 l -0.57,13.465 c 5.59,-5.078 11.76,-8.953 20.15,-8.953 0,-6.18 7.32,-11.231 11.26,-13.508 z m 14.61,48.797 c 0,5.605 6.18,6.758 10.09,7.84 18.51,2.843 31.4,-7.274 46.53,-12.313 -11.22,-2.277 -21.85,-6.746 -31.39,-14.59 -10.09,2.227 -19.66,9.512 -25.23,19.063 z m 182.83,-48.203 c -14.58,-7.871 -30.3,0.527 -45.43,1.082 -20.21,2.804 -42.09,6.203 -60.57,-2.801 -14.56,5.605 -28.59,13.477 -42.06,22.988 6.72,12.91 22.95,13.496 36.99,14.629 19.68,-6.199 35.91,-22.461 60.57,-16.301 5.61,-0.535 11.21,1.145 13.45,6.75 -6.68,10.637 -20.15,10.098 -30.29,13.438 -38.66,8.418 -70.09,33.691 -112.71,31.973 -12.92,14.617 -3.35,37.031 -5.02,55.546 2.77,3.926 11.76,8.407 7.26,14.032 -1.67,3.351 -6.22,2.199 -8.41,1.086 l -18.49,-11.778 c 0.57,-5.605 1.68,-11.769 1.1,-16.797 -12.36,2.227 -26.92,6.707 -41.53,6.707 -3.88,11.758 12.94,2.27 11.84,12.903 l 3.34,42.656 c -0.57,8.359 -14.04,6.152 -7.26,15.645 3.92,-0.54 9.46,-3.887 12.86,0 l 24.1,39.304 c 1.14,4.485 -2.2,8.41 -5.02,10.09 l 5.6,6.152 c 6.16,-10.636 17.95,-0.527 26.94,-0.527 8.97,6.152 30.85,-1.152 28.58,16.785 v 2.258 l 10.13,1.68 c -0.56,-7.879 -1.19,-19.043 -7.31,-23.555 -14.54,-5.234 -37.06,-1.25 -50.83,-8.105 l -11.97,-21.075 c 30.83,7.871 66.71,7.325 97.04,17.383 31.32,-12.316 63.89,-22.41 93.64,-40.39 -11.22,-15.118 -5.05,-33.633 -2.8,-51.543 -1.15,-20.215 -12.39,-36.457 -26.95,-50.489 -12.89,12.313 8.99,21.309 10.09,33.633 2.82,7.285 5.62,19.649 -1.67,25.801 -11.19,-0.547 -2.83,-14.57 -7.9,-20.176 -3.87,-9.562 -11.16,-16.855 -13.41,-26.367 -6.72,1.68 -13.46,8.984 -17.38,14.582 -3.35,7.301 9.54,15.711 -0.58,20.738 -10.69,-8.426 -20.18,-20.738 -33.04,-25.222 -1.69,-1.68 -2.83,-3.926 -1.69,-5.606 7.81,-8.976 17.4,3.926 25.19,-6.172 29.17,-22.441 56.62,-49.375 89.19,-63.953 10.09,-12.316 -0.53,-25.793 -5.59,-36.984 z m -15.16,93.652 h 3.37 v -0.586 h -3.37 z m 30.29,-30.859 c 5.02,2.8 11.77,0.578 16.26,-2.278 7.87,-6.707 11.79,-25.75 -0.57,-30.816 0,0 -15.09,32.937 -15.69,33.094 z m 10.67,-51.035 c 0,18.535 25.78,9.511 31.42,26.347 2.2,8.985 1.05,19.649 -4.5,26.934 -16.86,17.937 -41.53,2.226 -61.69,1.679 l -10.12,6.758 c 86.37,10.098 163.2,47.078 255.19,40.371 8.44,-2.246 17.93,-4.519 23,-13.476 1.68,-18.516 0.57,-38.703 5.59,-56.641 C 4060,691.195 3983.7,659.23 3905.77,643.52 Z m 165.99,5.039 c -0.55,6.746 -5.59,16.296 -1.1,20.187 24.68,2.274 51.6,2.801 73.43,-5.031 -1.67,-7.285 -11.21,-5.059 -16.23,-8.41 -17.96,-2.801 -37.02,-5.625 -56.1,-6.746 z m 54.94,-3.887 c 8.45,2.793 22.46,4.473 29.75,13.984 -0.52,16.836 -6.74,33.098 -6.16,50.489 47.1,1.113 94.23,5.593 140.73,9.531 -22.98,-16.836 -50.47,-26.399 -76.25,-38.145 20.76,-13.468 48.81,-19.629 73.48,-29.172 -52.15,-6.16 -107.14,-10.644 -161.55,-6.687"/><path id="path56" style="fill:#5e6776;fill-opacity:1;fill-rule:nonzero;stroke:none" d="m 3480.65,776.449 70.65,14.571 c 6.18,3.351 17.39,1.144 19.64,8.976 -28.02,-5.031 -55.52,-11.234 -84.15,-13.996 -5.02,-0.586 -3.91,-6.211 -6.14,-9.551"/><path id="path58" style="fill:#5e6776;fill-opacity:1;fill-rule:nonzero;stroke:none" d="m 3480.65,759.066 c 32.52,6.153 64.49,11.758 95.33,20.723 3.93,1.719 10.04,1.719 9.52,7.891 -35.29,-11.231 -74.61,-13.496 -110.45,-21.922 l 5.6,-6.692"/><path id="path60" style="fill:#5e6776;fill-opacity:1;fill-rule:nonzero;stroke:none" d="m 3584.98,765.219 2.24,3.926 c -33.09,-7.286 -69,-12.344 -102.67,-18.508 l 2.82,-6.746 c 33.09,6.199 66.19,11.23 97.61,21.328"/><path id="path62" style="fill:#5e6776;fill-opacity:1;fill-rule:nonzero;stroke:none" d="m 3487.9,801.652 -0.53,-6.687 c 20.78,2.793 40.91,7.285 60.59,12.91 l 2.25,3.887 -62.31,-10.11"/><path id="path64" style="fill:#5e6776;fill-opacity:1;fill-rule:nonzero;stroke:none" d="m 4098.66,731.293 7.21,-1.004 v -33.976 l -4.97,-0.637 0.21,-4.676 28.99,-3.195 0.08,5.109 -6.3,1.965 -0.96,33.973 c 0,0 3.78,-1.387 5.79,-2.922 2.29,-1.766 1.76,-5.664 1.76,-5.664 l 4.57,-1.629 c 0,0 0.06,11.484 0,11.652 -12.33,5.066 -28.14,7.359 -42.7,6.836 l -0.4,-16.223 4.3,0.664 2.42,9.727"/><path id="path66" style="fill:#5e6776;fill-opacity:1;fill-rule:nonzero;stroke:none" d="m 4090.86,697.758 -4.52,0.156 -3.72,32.375 5.97,0.691 -1.72,6.219 -30.24,-3.398 0.54,-5.625 4.5,0.597 4.5,-33.097 -4.5,-1.668 0.57,-5.606 29.12,3.555 -0.5,5.801"/><path id="path68" style="fill:#5e6776;fill-opacity:1;fill-rule:nonzero;stroke:none" d="m 3988.89,709.418 c -1.95,9.52 -14.81,9.375 -27.21,6.922 0.53,-0.125 -23.97,-7.195 -23.97,-7.195 l 1.2,-4.59 3.4,0.965 8.29,-32.305 -2.87,-4.09 1.77,-4.27 23.55,5.559 -2.62,6.484 -1.92,-0.488 -2.45,11.641 c 0,0 6.46,0.547 8.32,-1.418 3.72,-3.973 8.21,-14.5 8.21,-14.5 l 17.96,5.234 -14.48,16.555 c 0,0 5.84,0.758 2.82,15.496 z m -24.75,-15.988 c 0.54,-0.672 -3.74,14.601 -3.74,14.601 0,0 8.85,5.028 12.38,-4.433 2.57,-6.797 -4.67,-9.473 -8.64,-10.168"/><path id="path70" style="fill:#5e6776;fill-opacity:1;fill-rule:nonzero;stroke:none" d="m 4039.24,728.773 c -10.14,2.801 -21.88,1.68 -30.27,-3.925 -10.09,-5.032 -11.24,-15.703 -10.09,-26.368 1.1,-6.726 7.27,-12.91 13.46,-16.242 8.94,-3.386 20.73,-1.707 29.12,2.219 7.9,4.473 11.82,12.898 11.82,22.449 -0.58,8.957 -5.07,17.942 -14.04,21.867 z m -7.27,-42.05 c -7.19,-2.266 -9.04,3.757 -12.43,14.949 -3.15,10.266 -7.2,20.43 0.94,22.824 8.42,2.43 11.94,-9.141 14.26,-17.59 3.2,-11.551 4.68,-17.859 -2.77,-20.183"/><path id="path72" style="fill:#5e6776;fill-opacity:1;fill-rule:nonzero;stroke:none" d="m 3282.66,701.281 -4.49,1.145 c 2.2,2.812 8.42,3.359 6.74,8.371 -10.67,9.019 -24.13,5.066 -37.59,6.199 l -2.25,1.68 c 5.61,6.172 15.71,2.812 22.99,2.812 3.36,-0.586 7.29,2.813 5.07,6.16 -9.53,-2.234 -22.45,-1.14 -31.94,-6.16 -2.25,-2.265 -1.16,-5.066 0.52,-7.297 11.79,-1.679 28.02,3.946 36.99,-5.046 l -2.76,-1.114 c -14.63,6.16 -31.39,-3.926 -45.44,3.36 l 2.25,4.472 c -5.61,4.492 -14.02,5.625 -21.31,5.039 -2.82,-3.359 2.21,-8.39 -1.13,-12.312 -6.76,0 -3.36,6.746 -5.08,10.086 l -7.81,0.547 c -4.5,-2.227 -0.54,-6.164 -1.68,-8.965 6.75,-2.793 9.49,-10.633 14.57,-15.125 -2.22,-2.856 -6.76,-8.41 -9.53,-2.856 -3.36,-1.082 -7.86,-2.207 -8.97,-5.554 6.7,-13.508 19.06,-0.594 27.44,1.082 l 2.31,-1.082 c 5.02,7.285 13.98,7.285 20.15,8.953 4.51,-5.606 -5.07,-5.028 -7.26,-8.426 -2.83,-2.793 -7.31,2.82 -8.98,-2.207 0,-2.266 -2.24,-3.945 0,-6.191 8.98,-3.36 15.72,6.718 25.21,6.191 6.74,0.527 0,6.711 5.03,9.512 3.92,3.359 9.57,5.605 12.93,0 l -3.93,-3.907 c -2.78,0.547 -3.4,5.028 -6.72,3.36 -1.67,-1.133 -1.67,-2.813 -1.67,-3.938 -0.61,-6.16 6.14,-5.027 8.96,-6.746 6.75,5.078 13.42,10.684 17.38,17.957"/><path id="path74" style="fill:#5e6776;fill-opacity:1;fill-rule:nonzero;stroke:none" d="m 3190.66,841.5 h 120.08 v 130.105 h -120.08 z m 8.43,121.141 h 100.95 V 850.473 h -100.95 v 112.168"/><path id="path76" style="fill:#5e6776;fill-opacity:1;fill-rule:nonzero;stroke:none" d="m 3212.51,728.773 c 4.54,0.559 9.05,5.606 12.39,3.926 2.24,-0.566 1.68,2.227 3.32,2.821 10.72,2.218 20.24,9.511 32.56,6.691 -0.54,-1.121 0,-3.926 -2.21,-3.926 -5.07,-5.027 -17.38,0 -17.96,-9.512 2.25,-0.597 3.94,-3.925 7.29,-2.793 4.45,5.594 11.73,3.915 18.48,4.473 11.79,-3.359 2.26,9.551 11.79,10.637 6.17,-1.086 15.16,2.801 19.63,-3.352 0,-1.679 -0.53,-2.812 -1.72,-3.359 -1.68,-1.68 -3.88,-0.578 -5.02,1.141 -2.25,1.679 -5.05,0.539 -5.63,-1.719 0.58,-6.707 6.77,-5.625 10.65,-7.821 6.74,3.915 10.12,11.758 11.84,19.051 -4.53,1.125 -8.97,0 -12.37,3.332 3.4,0 8.42,2.821 7.27,7.305 -11.19,12.91 -32.51,3.926 -48.8,5.605 l -2.2,1.719 c 7.29,7.305 23,-0.586 26.88,9.512 -0.53,1.68 -2.76,1.68 -3.88,1.68 -8.44,-6.711 -23.57,-0.555 -28.6,-11.192 11.77,-13.476 30.28,0.547 45.98,-3.926 2.2,0.528 6.17,-2.804 4.5,-4.48 -19.06,1.676 -42.06,-3.949 -61.73,1.676 1.14,2.246 2.29,3.332 2.82,5.597 -6.74,5.039 -16.86,4.493 -24.14,5.614 0,-5.067 1.69,-8.965 -1.14,-12.887 -1.64,-2.27 -3.89,0.535 -5,1.676 -2.28,2.804 0,4.484 0.58,6.73 -1.14,5.586 -6.22,1.082 -9.58,3.36 -3.34,-1.133 -1.63,-5.606 -3.34,-8.438 9.52,-1.652 7.85,-14.551 16.27,-16.824 -2.25,-2.219 -3.93,-4.485 -6.75,-5.57 -2.2,1.085 -1.67,3.898 -3.91,3.351 -3.36,-2.266 -9.54,-1.672 -8.97,-7.297 4.45,-12.351 12.35,0 20.7,-2.801"/><path id="path78" style="fill:#5e6776;fill-opacity:1;fill-rule:nonzero;stroke:none" d="m 3195.74,771.977 c 2.77,-1.68 5.6,0.527 8.42,1.121 7.82,-1.121 14,7.824 20.74,5.558 11.74,7.344 25.24,11.231 39.81,10.106 l -2.78,-5.574 c -6.22,-2.266 -16.86,1.093 -19.07,-5.606 0,-5.605 6.14,-3.398 9.49,-5.078 6.22,7.285 17.96,0 24.15,6.152 -5.08,5.078 3.87,6.199 5.59,9.559 6.72,-3.934 17.39,5.07 20.73,-5.027 -2.78,-6.211 -7.27,4.492 -11.19,-1.133 -1.13,-6.758 5.64,-7.285 10.09,-9.551 7.29,3.398 11.21,11.23 11.21,19.66 -3.92,1.121 -8.38,0 -11.21,3.328 2.25,3.399 9.02,1.68 7.86,7.305 -14.03,14.023 -36.45,1.125 -54.41,6.726 0,1.145 0,1.684 0.54,2.239 7.89,6.191 22.99,-5.039 25.86,7.277 -1.2,2.274 -3.4,1.141 -5.07,1.141 -7.3,-7.305 -24.15,1.718 -26.92,-11.231 1.1,-3.351 5.06,-3.906 7.84,-4.433 15.13,-1.133 33.64,7.246 45.97,-2.266 -22.4,-1.68 -47.68,-4.492 -69.53,1.133 l 1.11,4.492 c -6.14,5 -14.56,7.273 -22.46,5 -0.53,-2.793 1.71,-5 1.14,-7.832 -1.14,-1.66 -0.53,-5.605 -4.46,-5.047 -5.03,1.656 -2.77,6.149 -2.24,10.086 -1.11,3.945 -5.61,1.125 -7.86,2.793 -5.03,-0.527 -3.35,-6.152 -5.03,-9.492 6.72,-3.945 10.1,-11.817 16.25,-17.383 -6.15,-9.023 -13.43,3.887 -18.5,-6.738 -1.15,-3.36 3.36,-4.492 3.93,-7.285"/><path id="path80" style="fill:#5e6776;fill-opacity:1;fill-rule:nonzero;stroke:none" d="m 3287.46,668.91 c 22.65,14.246 56.6,49.024 72.53,91.278 17.71,47.257 16.06,85.304 3.22,131.398 -7.81,27.859 -26.14,51.152 -26.14,51.152 v 55.801 h -62.14 l -21.15,11.511 -12.31,-3.84 13.62,-7.671 h -153.57 l 15.14,6.701 -13.66,3.85 c 0,0 -15.83,-8.4 -23.4,-10.551 h -62.79 v -58.887 c -29.13,-44.328 -43.28,-112.773 -23.89,-167.148 19.76,-55.332 40.58,-73.836 77.03,-103.594 40.38,-18.476 80.17,-34.719 108.78,-75.097 20.07,38.867 60.82,53.105 108.73,75.097 z m 51.3,250 c 15.24,-25.773 22.78,-57.226 22.7,-88.808 -0.1,-31.25 -7.69,-62.598 -22.7,-88.692 z M 3018.49,742.797 c -30.81,48.769 -30.28,125.633 0,174.969 z m 153.15,-114.981 c -31.41,34.239 -70.89,34.727 -108.24,67.86 -31.7,28.019 -27.53,85.539 -27.53,126.75 h 135.77 z m 0,205.254 h -135.77 v 146.407 h 135.77 c 0,0 0.48,-98.145 0,-146.407 z m 10.64,146.407 h 136.83 V 833.07 h -136.83 c 0,48.801 0,146.407 0,146.407 z m 0,-352.2 v 195.149 h 139.07 c 2.68,-64.317 0.58,-119.473 -56.07,-145.254 -28.02,-14.043 -61.12,-24.668 -83,-49.895"/><path id="path82" style="fill:#5e6776;fill-opacity:1;fill-rule:nonzero;stroke:none" d="m 3048.79,926.742 c 8.4,1.68 18.5,2.246 25.25,9.551 2.21,-5.059 3.88,0.539 6.75,1.094 11.74,1.718 21.84,10.664 34.2,6.191 l -0.62,-0.574 c -1.68,-7.856 -13.41,-6.172 -20.17,-7.258 -2.25,-6.758 3.4,-8.43 8.43,-8.43 7.29,5.586 19.63,0.559 25.77,6.711 -5.03,4.481 3.39,4.481 4.54,8.977 6.71,-3.899 17.4,5.047 20.75,-5.031 l -1.68,-1.141 c -2.25,0 -4.55,1.141 -6.76,2.273 -1.13,-0.597 -2.25,-1.718 -1.67,-3.359 -2.25,-6.758 5.6,-7.324 9.49,-8.43 8.43,3.352 9.56,12.336 10.71,20.168 -3.96,2.246 -7.89,-1.105 -10.71,2.805 2.82,1.121 9.01,2.801 6.75,7.879 -10.06,10.625 -29.75,5.594 -43.16,5.02 -2.82,-0.547 -6.74,-0.547 -6.74,3.378 2.24,3.36 7.32,1.153 11.25,1.68 5.55,-0.527 12.88,0.547 10.62,6.758 l -3.39,1.074 c -6.14,-6.68 -16.76,-1.66 -23.52,-6.68 -0.61,-2.832 -1.14,-6.757 1.68,-8.437 14.61,-3.352 31.95,5.039 47.13,-1.719 1.05,-1.074 0.52,-2.754 -0.62,-3.351 -21.28,1.718 -46.51,-4.481 -67.25,2.277 l 1.68,4.473 c -6.71,3.359 -15.18,9.55 -24.1,5.078 -0.57,-3.957 4.46,-10.684 -2.25,-12.949 -8.43,2.839 0,7.871 -3.96,12.343 -2.26,-0.547 -7.29,1.133 -10.07,-1.113 -6.18,-11.785 10.07,-15.711 14.03,-24.668 l -1.68,-1.68 c -2.28,-1.679 -5.64,-3.359 -6.22,0.575 -4.46,1.632 -6.13,-3.395 -9.49,-3.934 -3.39,-4.512 3.36,-7.871 5.03,-9.551"/><path id="path84" style="fill:#5e6776;fill-opacity:1;fill-rule:nonzero;stroke:none" d="m 3125.04,681.645 c 11.26,-6.153 19.64,-17.93 32.01,-20.743 6.16,46.563 4.45,150.305 4.45,150.305 h -65.58 c -14.6,-1.125 -5.64,-20.187 -15.71,-26.926 -2.29,-1.679 -7.89,-3.359 -9.57,1.133 -0.53,5.066 2.82,8.399 6.22,11.231 1.68,4.472 3.93,11.23 0,15.117 -4.54,3.945 -11.25,4.472 -16.85,3.386 -3.94,-2.273 -6.76,-6.199 -7.86,-10.105 -2.25,-6.719 0,-14.563 5.6,-18.504 0,-5.031 -3.92,-8.957 -7.28,-12.355 -2.77,-3.887 -0.57,-9.512 2.78,-12.325 6.22,-35.879 36.46,-72.343 71.79,-80.214 z m 11.26,10.632 c -15.72,8.43 -37.6,19.661 -42.67,39.297 15.18,-8.406 29.74,-17.957 43.73,-27.469 -1.67,-3.398 0,-8.429 -1.06,-11.828 z m 8.38,100.411 -1.1,-14.579 c -8.96,2.813 -16.86,9.571 -23.6,14.579 z m -34.2,-6.149 32.52,-19.066 -1.09,-9.559 c -12.36,5.078 -25.25,14.59 -37.03,21.875 z m -10.64,-14.035 c 14,-8.965 28.56,-16.836 41.49,-26.895 l -1.1,-9.55 c -15.71,7.304 -30.9,17.382 -44.31,28.015 z m -2.85,-20.188 42.66,-26.902 -1.68,-10.676 -50.47,31.418 -3.93,7.832 c 2.78,5.606 9.53,1.133 13.42,-1.672"/><path id="path86" style="fill:#5e6776;fill-opacity:1;fill-rule:nonzero;stroke:none" d="m 3291.06,947.484 c -1.1,4.52 -5.63,5.606 -9.49,5.059 -10.69,-9.539 -11.84,-26.926 -6.75,-39.824 0,-8.438 20.2,-16.817 7.84,-22.422 -7.31,5.027 -16.28,9.551 -21.35,17.383 -3.32,8.437 0,17.937 3.4,25.222 2.82,6.75 -1.11,12.903 3.93,18.508 -3.36,1.133 -5.04,3.945 -7.86,5.625 -7.28,0.574 -16.85,0 -21.31,-6.172 -1.14,-5.605 4.46,-4.484 7.85,-5.058 0.58,-4.473 -7.85,-0.547 -6.13,-6.153 l 6.13,-2.82 c -3.39,-3.352 -7.85,-6.73 -12.87,-7.277 -6.76,2.793 -14.04,6.191 -16.29,14.023 l 3.4,2.801 c 0.52,6.711 -7.34,4.484 -10.69,6.711 -0.56,-3.906 -6.71,-4.473 -6.18,-9.512 8.43,-7.285 14.04,-19.64 23.53,-25.812 -1.64,-1.649 -3.32,-2.254 -5.61,-3.934 -2.74,-1.68 -8.39,-1.68 -8.39,3.398 -7.27,2.766 -3.91,-6.191 -9.53,-6.738 1.73,-4.492 -1.14,-6.211 0.54,-10.644 l 5.08,-0.586 c 7.85,8.418 17.91,5.019 27.48,10.695 l 6.14,-10.695 -8.39,-2.254 c -6.71,-5.031 6.17,-9.512 0,-14.582 -3.92,-3.887 -8.4,1.121 -9.53,4.472 -6.76,2.266 -3.4,-6.679 -8.96,-6.679 -3.93,-5.078 4.51,-4.512 2.2,-10.11 1.68,-1.679 2.83,-2.273 5.08,-2.8 3.89,7.832 13.46,5.605 20.22,8.964 3.91,0.547 9.47,6.739 5.03,10.079 3.34,-0.539 6.13,2.265 8.41,-0.539 -3.35,-12.352 14.04,-8.993 13.43,-18.504 -1.69,0.527 -2.22,3.339 -5.04,2.207 -3.92,-5.032 -5.07,-10.039 0,-14.59 6.17,2.832 14.61,8.437 16.28,15.722 0.58,6.739 -5.64,7.891 -9.53,11.223 0,2.82 1.11,5.625 1.69,8.426 3.35,-2.266 6.17,-5.606 10.61,-5.078 5.63,0.594 7.3,6.758 5.63,11.23 -11.74,11.231 -18.51,26.348 -13.42,43.203 1.06,2.805 2.25,8.965 7.27,7.286 6.15,-6.165 -3.34,-11.192 -2.82,-17.383 0,-4.485 4.5,-6.164 7.32,-8.965 2.22,-0.594 6.67,-2.277 7.29,1.68 -7.89,5.605 -6.74,16.238 -5.64,25.214"/><path id="path88" style="fill:#5e6776;fill-opacity:1;fill-rule:nonzero;stroke:none" d="m 3145.25,894.242 c -2.25,0 -1.67,-2.859 -1.67,-4.492 1.1,-5.059 6.76,-4.531 10.11,-6.203 7.81,4.484 9.52,12.355 11.17,19.66 -3.36,1.672 -8.97,-1.152 -11.17,2.793 2.77,0.555 6.7,3.359 6.7,6.719 -11.21,15.703 -33.09,3.398 -49.91,7.871 4.51,8.398 17.92,0.527 24.14,6.726 1.68,1.672 0,4.465 -1.68,5.032 -8.42,-4.473 -19.1,-2.793 -26.96,-6.731 -2.78,-3.347 -1.71,-8.387 2.26,-9.5 15.7,-3.398 34.2,6.68 46.5,-3.398 l -1.67,-2.227 c -21.28,5.625 -43.74,-3.398 -63.9,1.66 -6.17,1.133 1.11,3.965 0,7.293 h -3.35 c -5.03,6.75 -14.61,3.352 -20.21,5.071 -4.46,-3.926 3.35,-6.203 0,-10.684 -0.53,-2.793 -3.93,-4.473 -6.14,-1.68 -3.92,2.813 0.54,5.614 0,8.965 -2.28,4.5 -5.64,-0.527 -9,2.274 -2.77,-1.121 -3.35,-4.481 -3.96,-6.746 -0.54,-3.36 3.39,-4.493 5.64,-5.606 1.68,-6.16 10.06,-9.512 8.39,-15.137 -1.68,-1.132 -5.61,-5.058 -7.29,0 -4.46,1.68 -6.13,-3.925 -9.49,-5.058 -0.61,-4.492 2.21,-5.625 5.03,-8.418 8.96,2.793 19.07,2.265 26.92,7.871 2.83,-2.266 2.83,1.68 5.08,2.801 11.74,2.226 22.41,8.957 35.3,7.304 -1.72,-1.14 0.57,-5.078 -2.78,-5.078 -5.07,-0.554 -9.04,-5.574 -14.03,-2.801 -3.36,0.575 -5.08,-2.773 -4.5,-5.625 -0.58,-5.027 5.06,-2.753 7.85,-3.886 6.18,6.152 18.54,4.484 26.92,3.886 -6.18,-6.152 -17.39,-1.085 -24.67,-6.679 -1.14,-2.832 -0.61,-6.219 2.2,-7.903 15.18,-3.886 32,4.504 47.13,-2.207 1.16,-0.593 0.53,-2.8 -0.52,-3.355 -23,5.027 -45.45,-3.93 -67.87,2.762 1.1,1.132 2.78,3.398 1.1,5.625 h -2.78 c -4.54,7.285 -14.03,2.8 -20.25,3.925 -1.06,-5.066 3.4,-9.55 -1.06,-12.91 -7.28,1.153 -3.36,7.305 -5.64,11.231 -2.79,-0.567 -6.14,2.238 -9.49,-0.567 -0.58,-2.82 -0.58,-7.304 0,-9.511 6.7,-2.278 8.37,-10.664 15.13,-14.036 l -2.82,-3.355 c -2.26,-2.793 -6.18,-0.547 -7.86,1.676 -3.36,-2.223 -10.06,-3.348 -7.85,-8.973 2.82,-6.199 8.95,-2.805 13.45,-2.805 7.86,-0.535 13.46,7.309 19.64,5.032 11.21,7.285 24.13,10.078 36.98,11.797 4.55,0 0.62,-3.926 0.62,-6.192 -6.75,-1.082 -12.93,-2.207 -19.07,-2.207 0,-2.277 -3.39,-5.078 0,-6.746 7.82,-3.937 17.39,2.801 26.88,0.594 12.35,-1.153 0.57,10.039 11.82,12.832 6.71,-2.207 13.99,1.719 19.59,-3.332 0,-7.832 -5.6,0 -8.96,-1.676 -1.67,-0.547 -1.13,-2.27 -1.13,-3.949 -1.12,-6.153 6.22,-4.469 9.57,-6.688 7.27,4.481 8.94,12.852 10.63,20.196 -3.93,-0.594 -7.86,-1.153 -10.63,2.207 2.77,1.14 8.94,3.347 6.7,8.425 -12.31,11.223 -31.99,3.891 -47.08,5.032 l -2.83,2.246 2.21,1.679 c 6.23,3.946 19.1,-2.793 21.36,6.747 0,3.351 -4.5,1.683 -5.65,1.683 0,2.254 0.62,4.481 -0.53,5.602 4.5,11.183 16.81,3.91 25.2,3.91 1.14,-1.684 2.82,-3.352 0.62,-5.031 -3.93,-1.68 -5.08,2.793 -8.44,2.265"/><path id="path90" style="fill:#5e6776;fill-opacity:1;fill-rule:nonzero;stroke:none" d="m 3883.33,898.723 c 0,-2.274 2.81,-2.821 4.43,-3.399 13.51,17.395 15.76,40.422 16.34,63.918 -2.3,16.836 -5.07,35.371 -19.07,45.448 -2.29,0 -3.38,-2.21 -3.38,-4.47 20.77,-29.142 12.88,-71.232 1.68,-101.497"/><path id="path92" style="fill:#5e6776;fill-opacity:1;fill-rule:nonzero;stroke:none" d="m 3789.68,1034.44 c -9.54,0 -11.22,-10.09 -16.81,-14.57 2.77,-6.21 10.05,-9.02 16.81,-10.1 12.32,-3.4 26.35,-1.13 34.19,7.83 -11.24,5.61 -19.68,19.06 -34.19,16.84 z m -5.08,-16.84 c 1.13,2.8 1.68,6.15 5.08,7.87 l 1.1,-8.99 z m 19.12,5.61 7.84,-5.61 c -2.3,-3.36 -6.75,-3.36 -10.67,-3.94 0,2.26 2.83,5.62 2.83,9.55"/><path id="path94" style="fill:#5e6776;fill-opacity:1;fill-rule:nonzero;stroke:none" d="m 342.945,12.4414 v 19.4805 c -46.445,0 -75.449,10.7383 -75.449,59.6367 V 421.313 c 91.774,0 113.559,-16.485 122.106,-88.848 h 21.582 V 464.223 H 0 V 332.465 h 21.5195 c 8.543,72.363 30.3321,88.848 122.1015,88.848 V 91.5586 c 0,-48.8984 -28.98,-59.6367 -75.4335,-59.6367 V 12.4414 H 342.945"/><path id="path96" style="fill:#5e6776;fill-opacity:1;fill-rule:nonzero;stroke:none" d="M 740.816,229.25 V 91.6406 C 740.816,47.8594 717.152,33.2305 679.063,32 V 12.4414 H 920.051 V 32 c -43.774,0 -60.91,10.7617 -60.91,59.6406 V 385.063 c 0,48.886 17.136,59.648 60.91,59.648 v 19.512 H 679.063 v -19.512 c 38.089,-1.27 61.753,-15.82 61.753,-59.648 V 265.648 H 585.613 v 119.415 c 0,43.828 23.664,58.378 61.75,59.648 v 19.512 H 425.051 v -19.512 c 29.937,-6.262 42.215,-10.762 42.215,-59.648 V 91.6406 C 467.266,42.7617 450.141,32 406.352,32 V 12.4414 H 647.363 V 32 c -38.086,1.2305 -61.75,15.8594 -61.75,59.6406 V 229.25 h 155.203"/><path id="path98" style="fill:#5e6776;fill-opacity:1;fill-rule:nonzero;stroke:none" d="M 1321.06,12.4414 V 146.551 h -15.82 C 1279.83,50.0703 1249.4,44.2188 1207.51,44.2188 h -55.84 c -26.66,0 -31.77,8.9296 -31.77,33.0117 V 229.941 c 67.53,-1.109 114.57,7.489 118.86,-56.73 h 17.07 v 144.027 h -17.07 c -4.25,-56.316 -54.08,-50.84 -118.86,-50.84 v 166.086 h 71.09 c 72.35,0 103.45,-27.937 110.44,-96.464 h 13.95 V 464.223 H 942.305 v -19.512 c 43.812,0 60.935,-10.762 60.935,-59.648 V 91.6406 C 1003.24,42.7617 986.117,32 942.305,32 V 12.4414 h 378.755"/><path id="path100" style="fill:#5e6776;fill-opacity:1;fill-rule:nonzero;stroke:none" d="m 1556.32,9.94141 12.81,-0.28125 c 3.77,11.37894 11.29,21.85154 24.96,21.85154 25.31,0 46.71,-30.40232 143.99,-30.40232 63.12,0 142.19,46.92192 142.19,152.87862 0,155.039 -248.06,128.321 -248.06,232.871 0,38.672 35.71,57.11 75.52,57.11 59.19,0 100.91,-45.117 119.32,-102.832 h 13.71 v 123.086 h -19.31 c -3.15,-9.739 -5.32,-16.192 -14.94,-16.192 -22.46,0 -40.61,27.813 -105.66,27.813 -79.32,0 -161.66,-34.199 -161.66,-133.692 0,-166.203 251.29,-143.261 251.29,-247.3629 0,-33.8282 -38.94,-62.0078 -85.54,-62.0078 -62.67,0 -125.14,50.6289 -135.81,114.8207 h -17.91 l 5.1,-137.66059"/><path id="path102" style="fill:#5e6776;fill-opacity:1;fill-rule:nonzero;stroke:none" d="m 4869.72,12.4414 v 18.2891 c -37.49,0 -52.32,23.6015 -52.32,72.4415 v 272.933 c 0,48.84 10.44,68.196 45.73,68.196 v 19.922 h -211.05 v -19.922 c 35.79,0 46.3,-19.356 46.3,-68.196 V 103.172 c 0,-48.84 -14.88,-72.4415 -52.87,-72.4415 V 12.4414 h 224.21"/><path id="path104" style="fill:#5e6776;fill-opacity:1;fill-rule:nonzero;stroke:none" d="M 5175.7,12.4414 5315.82,375.375 V 103.172 c 0,-54.0001 -9.66,-66.7618 -60.97,-72.4415 V 12.4414 h 237.77 v 18.2891 c -57.07,5.6797 -60.96,23.6015 -60.96,72.4415 v 268.676 c 0,60.597 10.32,63.781 60.96,72.453 v 19.922 h -185.37 l -111.22,-294.164 -109.3,294.164 h -184.81 v -19.922 c 43.15,0 60.28,-23.594 60.28,-72.453 V 96.2109 c 0,-48.832 -8.86,-57.6718 -60.28,-65.4804 V 12.4414 h 161.54 v 18.2891 c -58.85,8.8789 -60.99,16.6484 -60.99,65.4804 V 356.066 L 5140.43,12.4414 h 35.27"/><path id="path106" style="fill:#5e6776;fill-opacity:1;fill-rule:nonzero;stroke:none" d="M 5902.78,12.4414 V 146.551 h -15.81 C 5861.55,50.0703 5831.13,44.2188 5789.24,44.2188 h -55.85 c -26.67,0 -31.74,8.9296 -31.74,33.0117 V 229.941 c 67.51,-1.109 114.49,7.489 118.83,-56.73 h 17.06 v 144.027 h -17.06 c -4.24,-56.316 -54.12,-50.84 -118.83,-50.84 v 166.086 h 71.06 c 72.35,0 103.45,-27.937 110.42,-96.464 h 13.98 v 128.203 h -373.09 v -19.512 c 43.78,0 60.97,-10.762 60.97,-59.648 V 89.9297 c 0,-48.8477 -17.19,-59.6484 -60.97,-59.6484 V 12.4414 h 378.76"/><path id="path108" style="fill:#5e6776;fill-opacity:1;fill-rule:nonzero;stroke:none" d="m 5958.43,9.94141 h 12.82 c 3.72,11.41799 11.28,21.57029 24.89,21.57029 13.14,0 72.65,-30.40232 144.04,-30.40232 63.09,0 142.19,46.92192 142.19,152.87862 0,155.039 -248.07,128.321 -248.07,232.871 0,38.672 35.72,57.11 75.48,57.11 59.25,0 100.96,-45.117 119.34,-102.832 h 13.74 v 123.086 h -19.26 c -3.24,-9.739 -5.37,-16.192 -14.98,-16.192 -22.46,0 -40.67,27.813 -105.68,27.813 -79.3,0 -161.62,-34.199 -161.62,-133.692 0,-166.203 251.26,-143.261 251.26,-247.3629 0,-33.8282 -38.91,-62.0078 -85.57,-62.0078 -62.69,0 -125.1,50.6289 -135.76,114.8207 h -17.96 l 5.14,-137.66059"/><path id="path110" style="fill:#5e6776;fill-opacity:1;fill-rule:nonzero;stroke:none" d="m 4563.27,12.4414 v 19.4805 c -46.44,0 -75.46,10.7383 -75.46,59.6367 V 421.313 c 91.83,0 113.59,-16.485 122.11,-88.848 h 21.55 V 464.223 H 4220.32 V 332.465 h 21.5 c 8.55,72.363 30.34,88.848 122.11,88.848 V 91.5586 c 0,-48.8984 -28.93,-59.6367 -75.43,-59.6367 V 12.4414 h 274.77"/><path id="path112" style="fill:#5e6776;fill-opacity:1;fill-rule:nonzero;stroke:none" d="m 2365.72,444.301 c 25.4,0 33.96,-6.336 56.13,-32.969 V 92.0391 c 0,-48.8282 -22.42,-59.6289 -68.93,-59.6289 V 12.4414 h 182.24 v 19.9688 c -50.19,0 -72.32,10.8007 -72.32,59.6289 V 344.281 h 1.27 L 2719.65,12.4414 h 53.47 V 374.672 c 0,48.887 16.04,66.308 60.91,69.629 v 19.922 h -156.1 v -19.922 c 44.91,-8.672 54.53,-20.742 54.53,-69.629 V 184.988 h -1.23 l -208.34,279.235 h -325.83 v -19.922 c 40.62,-1.27 60.09,-20.324 60.09,-59.637 V 163.602 c 0,-83.7426 -27.24,-115.4536 -95.64,-115.4536 -43.16,0 -95.15,20.25 -95.15,87.5626 v 248.953 c 0,48.875 17.14,59.637 60.92,59.637 v 19.922 h -237.8 v -19.922 c 43.81,0 60.91,-10.762 60.91,-59.637 V 144.16 C 1950.39,36.2891 2025.25,0 2128.05,0 c 112.58,0 172.14,39.4805 172.14,145.469 v 239.195 c 0,48.875 20.65,59.637 65.53,59.637"/><path id="path114" style="fill:#5e6776;fill-opacity:1;fill-rule:nonzero;stroke:none" d="m 2917.45,92.0391 c 0,-48.8282 -17.11,-59.6289 -60.88,-59.6289 V 12.4414 h 225.41 c 142.11,0 238.57,59.2305 238.57,225.3206 0,167.476 -96.46,226.461 -238.57,226.461 h -225.41 v -19.922 c 43.77,0 60.88,-10.762 60.88,-59.637 z m 117.6,339.9569 c 118.71,13.895 166.78,-79.453 166.78,-182.207 0,-149.23 -39.47,-202.7382 -125.09,-202.7382 -28.06,0 -41.69,10.0976 -41.69,46.8789 V 431.996"/><path id="path116" style="fill:#5e6776;fill-opacity:1;fill-rule:nonzero;stroke:none" d="m 3761.13,32 c -28.2,-0.1797 -47.38,14.1211 -58.84,42.0117 L 3557.92,479.074 3475.58,457.68 3347.68,92.2891 C 3329.22,44.6719 3304.52,34.4492 3266.01,32 V 12.4414 h 179.67 V 32 c -38.71,0 -64.26,12.0313 -64.26,28.5508 0,12.0586 3.19,21.5976 8.26,35.5078 l 23.11,55.7934 h 134.47 l 29.4,-65.9418 c 3.2,-8.8399 6.97,-20.2891 6.97,-30.4414 C 3583.63,40.2617 3572.24,32 3557.6,32 h -34.94 V 12.4414 h 484.36 v 19.9688 c -43.73,0 -69.51,10.8007 -69.51,59.6289 V 225.648 l 106.93,170.43 c 26.72,40.664 43.83,44.902 81.29,48.223 v 19.922 h -163.65 v -19.922 c 25.46,0 43.3,-6.953 43.3,-24.746 0,-14.559 -6.95,-27.891 -13.34,-39.969 l -72.69,-109.016 -64.13,109.629 c -8.27,15.879 -17.81,33.008 -17.81,44.426 0,11.414 10.13,19.676 35.54,19.676 v 19.922 h -240.14 v -19.922 c 24.72,-4.453 53.44,-1.18 74.79,-34.238 L 3822.48,225.648 V 92.0391 c 0,-48.8282 -27.9,-59.8789 -61.35,-60.0391 z m -224.58,158.871 h -111.19 l 55.59,164.172 55.6,-164.172"/></g></g></svg>